<?xml version="1.0" standalone="no"?>
<!DOCTYPE svg PUBLIC "-//W3C//DTD SVG 1.1//EN" "http://www.w3.org/Graphics/SVG/1.1/DTD/svg11.dtd" >
<svg xmlns="http://www.w3.org/2000/svg" xmlns:xlink="http://www.w3.org/1999/xlink" version="1.1">
<metadata>
Created by FontForge 20160407 at Tue Aug  9 12:02:46 2016
 By Jimmy Warting
Copyright (c) 2014 MCKL, Inc. All rights reserved.
</metadata>
<defs>
<font id="FortCond-Extrabold" horiz-adv-x="535" >
  <font-face 
    font-family="Fort Cond Extrabold"
    font-weight="720"
    font-stretch="normal"
    units-per-em="1000"
    panose-1="0 0 0 0 0 0 0 0 0 0"
    ascent="750"
    descent="-250"
    x-height="501"
    cap-height="700"
    bbox="-87 -352 1182 964"
    underline-thickness="50"
    underline-position="-100"
    stemh="167"
    stemv="180"
    unicode-range="U+0020-EBA9"
  />
<missing-glyph horiz-adv-x="701" 
d="M86 0v700h530v-700h-530zM231 614l121 -201l121 201h-242zM298 344l-131 216v-433zM406 344l129 -214v429zM349 278l-111 -192h225z" />
    <glyph glyph-name="fi" unicode="fi" horiz-adv-x="579" 
d="M456 553c-59 0 -94 34 -94 93c0 61 35 94 94 94c60 0 93 -33 93 -94c0 -59 -33 -93 -93 -93zM326 363h-92v-363h-169v363h-55v138h55v40c0 131 73 195 177 195c44 0 79 -12 106 -32l-42 -117c-8 7 -21 10 -32 10c-23 0 -40 -16 -40 -60v-36h92v-138zM370 501h172v-501
h-172v501z" />
    <glyph glyph-name="fl" unicode="fl" horiz-adv-x="579" 
d="M542 700v-700h-172v700h172zM326 363h-92v-363h-169v363h-55v138h55v40c0 131 73 195 177 195c44 0 79 -12 106 -32l-42 -117c-8 7 -21 10 -32 10c-23 0 -40 -16 -40 -60v-36h92v-138z" />
    <glyph glyph-name=".notdef" horiz-adv-x="701" 
d="M86 0v700h530v-700h-530zM231 614l121 -201l121 201h-242zM298 344l-131 216v-433zM406 344l129 -214v429zM349 278l-111 -192h225z" />
    <glyph glyph-name="Eth" unicode="&#xd0;" horiz-adv-x="609" 
d="M283 0h-215v272h-46v146h46v282h229c190 0 281 -111 281 -344c0 -232 -96 -356 -295 -356zM248 158h34c71 0 116 51 116 194c0 130 -33 191 -101 191h-49v-125h64v-146h-64v-114z" />
    <glyph glyph-name="eth" unicode="&#xf0;" horiz-adv-x="485" 
d="M242 -15c-145 0 -218 88 -218 255c0 176 76 254 193 254c28 0 51 -10 71 -29c-9 37 -23 69 -43 96l-54 -44l-32 50l41 34c-21 17 -46 29 -73 39l37 116c58 -5 109 -29 151 -64l60 49l33 -52l-52 -40c65 -80 105 -207 105 -354v-30c0 -199 -75 -280 -219 -280zM299 238
c0 86 -16 123 -57 123c-40 0 -56 -37 -56 -123c0 -82 19 -116 56 -116s57 34 57 116z" />
    <glyph glyph-name="Lslash" unicode="&#x141;" horiz-adv-x="517" 
d="M498 0h-426v202l-55 -43v150l55 41v350h181v-255l118 83v-150l-118 -81v-134h245v-163z" />
    <glyph glyph-name="lslash" unicode="&#x142;" horiz-adv-x="288" 
d="M229 700v-228l55 51v-149l-55 -51v-323h-172v197l-51 -49v149l51 48v355h172z" />
    <glyph glyph-name="Scaron" unicode="&#x160;" horiz-adv-x="508" 
d="M255 855l42 53h119v-3l-96 -138h-137l-93 138v3h125zM479 544l-148 -61c-14 50 -42 79 -85 79c-36 0 -56 -22 -56 -51s21 -49 78 -72l43 -17c123 -49 175 -116 175 -220c0 -133 -82 -218 -241 -218c-128 0 -215 50 -246 172l149 60c16 -60 50 -86 98 -86
c42 0 65 26 65 56c0 28 -16 48 -63 66l-41 16c-146 57 -186 138 -186 231c0 124 79 217 227 217c133 0 211 -71 231 -172z" />
    <glyph glyph-name="scaron" unicode="&#x161;" horiz-adv-x="402" 
d="M200 657l42 53h119v-3l-96 -138h-137l-93 138v3h125zM190 102c30 0 45 13 45 31c0 19 -14 29 -50 42l-25 9c-81 29 -139 78 -139 169c0 96 70 163 183 163c103 0 160 -49 185 -126l-114 -51c-9 33 -38 52 -69 52c-24 0 -42 -9 -42 -30c0 -15 11 -25 49 -39l37 -14
c90 -34 136 -79 136 -161c0 -92 -64 -161 -192 -161c-106 0 -169 41 -192 120l110 52c14 -38 39 -56 78 -56z" />
    <glyph glyph-name="Yacute" unicode="&#xdd;" horiz-adv-x="580" 
d="M458 902l-108 -134h-130v5l67 136h171v-7zM200 252l-194 448h200l90 -270l89 270h189l-194 -453v-247h-180v252z" />
    <glyph glyph-name="yacute" unicode="&#xfd;" horiz-adv-x="484" 
d="M401 703l-108 -134h-130v5l67 136h171v-7zM149 -30l6 31l-147 500h179l57 -297l56 297h177l-176 -592c-29 -101 -95 -132 -178 -132c-47 0 -81 8 -111 25l23 131c26 -14 51 -18 60 -18c33 0 46 16 54 55z" />
    <glyph glyph-name="Thorn" unicode="&#xde;" horiz-adv-x="551" 
d="M233 0h-180v700h180v-97h96c134 0 201 -103 201 -252c0 -161 -95 -250 -222 -250h-75v-101zM291 438h-58v-177h59c37 0 61 29 61 90c0 51 -21 87 -62 87z" />
    <glyph glyph-name="thorn" unicode="&#xfe;" horiz-adv-x="503" 
d="M209 248c0 -87 22 -124 52 -124c37 0 55 39 55 125c0 90 -20 126 -53 126c-32 0 -54 -36 -54 -127zM39 -186v886h173v-252c26 43 72 68 114 68c97 0 154 -91 154 -256c0 -164 -55 -275 -177 -275c-38 0 -67 17 -91 44v-215h-173z" />
    <glyph glyph-name="Zcaron" unicode="&#x17d;" horiz-adv-x="502" 
d="M254 856l42 53h119v-3l-96 -138h-137l-93 138v3h125zM18 0v118l244 427l-238 -4v159h448v-116l-239 -429l247 4v-159h-462z" />
    <glyph glyph-name="zcaron" unicode="&#x17e;" horiz-adv-x="407" 
d="M208 657l42 53h119v-3l-96 -138h-137l-93 138v3h125zM19 0v105l174 259h-171v137h358v-110l-169 -254h177v-137h-369z" />
    <glyph glyph-name="onehalf" unicode="&#xbd;" horiz-adv-x="763" 
d="M200 293h-121v270l-32 -22l-44 98l117 74h80v-420zM543 700l-271 -700h-140l271 700h140zM479 0v80l119 154c18 26 26 43 26 56c0 18 -11 28 -29 28s-33 -9 -44 -38l-93 35c22 75 79 108 150 108c80 0 135 -42 135 -117c0 -53 -26 -90 -77 -157l-37 -49l115 5v-105h-265z
" />
    <glyph glyph-name="onequarter" unicode="&#xbc;" horiz-adv-x="747" 
d="M200 293h-121v270l-32 -22l-44 98l117 74h80v-420zM543 700l-271 -700h-140l271 700h140zM412 75v87l88 251h116l-86 -234h61v93h110v-93h35v-104h-35v-75h-110v75h-179z" />
    <glyph glyph-name="onesuperior" unicode="&#xb9;" horiz-adv-x="230" 
d="M200 294h-121v270l-32 -22l-44 98l117 74h80v-420z" />
    <glyph glyph-name="threequarters" unicode="&#xbe;" horiz-adv-x="805" 
d="M601 700l-271 -700h-140l271 700h140zM151 283c-67 0 -118 27 -147 96l86 46c16 -36 30 -45 53 -45c21 0 34 13 34 35c0 24 -18 38 -42 38h-29v89h30c19 0 36 13 36 37c0 23 -15 35 -35 35c-21 0 -35 -12 -41 -35l-87 35c21 72 70 102 143 102c91 0 138 -50 138 -114
c0 -44 -18 -73 -53 -100c35 -18 56 -52 56 -96c0 -75 -57 -123 -142 -123zM469 75v87l88 251h116l-86 -234h61v93h110v-93h35v-104h-35v-75h-110v75h-179z" />
    <glyph glyph-name="threesuperior" unicode="&#xb3;" horiz-adv-x="309" 
d="M151 284c-67 0 -118 27 -147 96l86 46c16 -36 30 -45 53 -45c21 0 34 13 34 35c0 24 -18 38 -42 38h-29v89h30c19 0 36 13 36 37c0 23 -15 35 -35 35c-21 0 -35 -12 -41 -35l-87 35c21 72 70 102 143 102c91 0 138 -50 138 -114c0 -44 -18 -73 -53 -100
c35 -18 56 -52 56 -96c0 -75 -57 -123 -142 -123z" />
    <glyph glyph-name="twosuperior" unicode="&#xb2;" horiz-adv-x="300" 
d="M21 294v80l119 154c18 26 26 43 26 56c0 18 -11 28 -29 28s-33 -9 -44 -38l-93 35c22 75 79 108 150 108c80 0 135 -42 135 -117c0 -53 -26 -90 -77 -157l-37 -49l115 5v-105h-265z" />
    <glyph glyph-name="brokenbar" unicode="&#xa6;" horiz-adv-x="258" 
d="M51 381v385h155v-385h-155zM51 -65v385h155v-385h-155z" />
    <glyph glyph-name="minus" unicode="&#x2212;" horiz-adv-x="395" 
d="M355 362v-102h-315v102h315z" />
    <glyph glyph-name="multiply" unicode="&#xd7;" horiz-adv-x="394" 
d="M109 131l-73 69l98 109l-100 113l76 73l88 -103l84 100l73 -70l-96 -108l97 -109l-77 -73l-84 101z" />
    <glyph glyph-name="space" unicode=" " horiz-adv-x="180" 
 />
    <glyph glyph-name="exclam" unicode="!" horiz-adv-x="222" 
d="M196 701l-26 -474h-119l-25 474h170zM110 -9c-57 0 -90 36 -90 94s33 92 90 92c59 0 90 -34 90 -92s-31 -94 -90 -94z" />
    <glyph glyph-name="quotedbl" unicode="&#x22;" horiz-adv-x="369" 
d="M209 416l-9 300h137l-23 -300h-105zM160 416h-105l-22 300h136z" />
    <glyph glyph-name="numbersign" unicode="#" horiz-adv-x="638" 
d="M344 305l22 99h-66l-22 -99h66zM282 0l39 178h-68l-37 -178h-159l38 178h-86l31 127h79l21 99h-83l30 125h78l36 171l158 -2l-35 -170l67 1l35 171h159l-35 -171h83l-29 -125h-79l-21 -99h83l-30 -127h-77l-38 -178h-160z" />
    <glyph glyph-name="dollar" unicode="$" horiz-adv-x="483" 
d="M207 446v115c-30 -7 -42 -28 -42 -55c0 -25 11 -45 42 -60zM267 133c31 7 44 29 44 55c0 25 -10 44 -44 63v-118zM207 -62v62c-102 5 -174 51 -203 165l137 45c13 -44 33 -69 66 -77v138l-6 3c-140 54 -181 131 -181 223c0 109 68 191 187 201v68h60v-68
c101 -8 166 -56 191 -164l-137 -47c-10 40 -29 62 -54 71v-133l31 -10c120 -45 165 -111 165 -208c0 -118 -67 -194 -196 -206v-63h-60z" />
    <glyph glyph-name="percent" unicode="%" horiz-adv-x="851" 
d="M17 500c0 143 47 216 158 216c112 0 160 -73 160 -216c0 -145 -48 -217 -160 -217c-111 0 -158 73 -158 217zM629 700l-271 -700h-140l271 700h140zM216 500c0 89 -15 117 -41 117c-25 0 -39 -29 -39 -117c0 -89 14 -119 40 -119c25 0 40 30 40 119zM515 207
c0 143 47 216 158 216c112 0 160 -73 160 -216c0 -145 -48 -217 -160 -217c-111 0 -158 73 -158 217zM714 207c0 89 -15 117 -41 117c-25 0 -39 -29 -39 -117c0 -89 14 -119 40 -119c25 0 40 30 40 119z" />
    <glyph glyph-name="ampersand" unicode="&#x26;" horiz-adv-x="576" 
d="M488 -20c-29 17 -59 36 -90 58c-49 -36 -107 -54 -170 -54c-146 0 -216 72 -216 195c0 64 25 126 87 184c-32 59 -51 117 -51 171c0 116 67 182 181 182c110 0 167 -57 167 -156c0 -69 -20 -137 -107 -215c28 -34 61 -68 94 -99c24 61 38 141 38 240h140
c3 -140 -22 -251 -65 -333c26 -18 51 -34 72 -45zM187 538c0 -25 10 -54 26 -86c36 32 48 59 48 91c0 28 -13 45 -36 45c-21 0 -38 -14 -38 -50zM236 116c18 0 36 4 53 12c-40 37 -77 76 -111 117c-12 -19 -17 -38 -17 -59c0 -43 26 -70 75 -70z" />
    <glyph glyph-name="quotesingle" unicode="'" horiz-adv-x="202" 
d="M48 416l-15 300h136l-16 -300h-105z" />
    <glyph glyph-name="parenleft" unicode="(" horiz-adv-x="305" 
d="M288 -11l-26 -155c-164 20 -242 174 -242 447c0 274 76 426 237 446l31 -154c-83 -18 -127 -86 -127 -292s44 -274 127 -292z" />
    <glyph glyph-name="parenright" unicode=")" horiz-adv-x="305" 
d="M40 -166l-26 155c83 18 127 86 127 292s-44 274 -127 292l31 154c161 -20 237 -172 237 -446c0 -273 -78 -427 -242 -447z" />
    <glyph glyph-name="asterisk" unicode="*" horiz-adv-x="355" 
d="M129 330l-99 74l53 78l-76 34l47 120l62 -29l-6 109h135l-5 -109l63 29l46 -123l-75 -31l54 -78l-101 -74l-49 75z" />
    <glyph glyph-name="plus" unicode="+" horiz-adv-x="395" 
d="M251 118h-106v142h-105v102h105v146h106v-146h104v-102h-104v-142z" />
    <glyph glyph-name="comma" unicode="," horiz-adv-x="222" 
d="M53 -158l-36 73c35 13 67 38 79 78c-47 6 -75 38 -75 92c0 59 32 92 90 92s90 -37 90 -105c0 -113 -54 -201 -148 -230z" />
    <glyph glyph-name="hyphen" unicode="-" horiz-adv-x="401" 
d="M361 410v-146h-321v146h321z" />
    <glyph glyph-name="period" unicode="." horiz-adv-x="221" 
d="M110 -9c-57 0 -89 36 -89 94s32 92 89 92c59 0 91 -34 91 -92s-32 -94 -91 -94z" />
    <glyph glyph-name="slash" unicode="/" horiz-adv-x="466" 
d="M465 700l-273 -700h-191l275 700h189z" />
    <glyph glyph-name="zero" unicode="0" horiz-adv-x="520" 
d="M260 616c149 0 235 -104 235 -316c0 -210 -87 -316 -235 -316c-145 0 -235 103 -235 316s86 316 235 316zM260 465c-44 0 -68 -40 -68 -165c0 -123 24 -166 68 -166c42 0 66 43 66 167c0 122 -24 164 -66 164z" />
    <glyph glyph-name="one" unicode="1" horiz-adv-x="331" 
d="M292 0h-174v379l-52 -41l-64 150l176 122h114v-610z" />
    <glyph glyph-name="two" unicode="2" horiz-adv-x="459" 
d="M24 0v107l157 192c47 57 69 90 69 120s-16 44 -44 44c-29 0 -51 -20 -64 -60l-130 57c44 117 120 156 215 156c115 0 197 -56 197 -172c0 -65 -35 -119 -114 -221l-71 -89l197 7v-141h-412z" />
    <glyph glyph-name="three" unicode="3" horiz-adv-x="483" 
d="M221 31c41 0 67 26 67 75c0 47 -31 73 -76 73h-53v142h53c37 0 65 26 65 72c0 44 -25 70 -65 70c-38 0 -61 -25 -72 -66l-130 53c34 116 111 166 226 166c141 0 214 -80 214 -189c0 -73 -28 -126 -84 -168c56 -31 90 -88 90 -167c0 -124 -85 -208 -224 -208
c-106 0 -192 45 -229 158l127 69c25 -62 52 -80 91 -80z" />
    <glyph glyph-name="four" unicode="4" horiz-adv-x="538" 
d="M23 37v132l143 431h170l-140 -404h109v179h162v-179h54v-159h-54v-137h-162v137h-282z" />
    <glyph glyph-name="five" unicode="5" horiz-adv-x="495" 
d="M230 -116c-105 0 -187 44 -226 156l129 69c24 -63 50 -80 90 -80c48 0 74 40 74 99c0 63 -32 92 -72 92c-30 0 -52 -14 -67 -40l-122 58l22 362h389v-152l-248 1l-7 -114c25 13 52 21 84 21c117 0 194 -76 194 -224c0 -156 -83 -248 -240 -248z" />
    <glyph glyph-name="six" unicode="6" horiz-adv-x="516" 
d="M279 -16c-167 0 -254 116 -254 363c0 235 79 369 263 369c110 0 176 -48 209 -136l-124 -70c-15 39 -38 60 -78 60c-72 0 -100 -62 -100 -213v-13c19 58 63 97 133 97c95 0 167 -73 167 -219c0 -137 -69 -238 -216 -238zM270 129c38 0 58 33 58 90c0 56 -20 89 -58 89
c-36 0 -61 -33 -61 -89s24 -90 61 -90z" />
    <glyph glyph-name="seven" unicode="7" horiz-adv-x="456" 
d="M103 -100c0 245 72 425 173 540l-259 -3v163h429v-128c-97 -160 -150 -309 -146 -572h-197z" />
    <glyph glyph-name="eight" unicode="8" horiz-adv-x="506" 
d="M252 -16c-150 0 -229 83 -229 213c0 78 34 139 93 170c-44 33 -72 87 -72 151c0 125 74 198 208 198c138 0 211 -73 211 -198c0 -64 -30 -118 -73 -151c59 -31 93 -91 93 -170c0 -130 -77 -213 -231 -213zM310 505c0 38 -19 72 -57 72c-37 0 -57 -34 -57 -72
c0 -39 21 -70 57 -70c37 0 57 30 57 70zM253 121c40 0 62 32 62 80c0 44 -21 80 -61 80c-42 0 -63 -36 -63 -80c0 -47 23 -80 62 -80z" />
    <glyph glyph-name="nine" unicode="9" horiz-adv-x="515" 
d="M246 468c-37 0 -57 -33 -57 -89s18 -92 57 -92c32 0 59 33 59 92c0 54 -23 89 -59 89zM236 616c167 0 255 -116 255 -363c0 -234 -80 -369 -266 -369c-100 0 -175 39 -210 118l115 86c18 -37 46 -61 87 -61c71 0 105 59 105 205v19c-20 -58 -64 -98 -134 -98
c-95 0 -166 75 -166 223c0 138 69 240 214 240z" />
    <glyph glyph-name="colon" unicode=":" horiz-adv-x="221" 
d="M110 314c-57 0 -89 36 -89 94s32 92 89 92c59 0 91 -34 91 -92s-32 -94 -91 -94zM110 -9c-57 0 -89 36 -89 94s32 92 89 92c59 0 91 -34 91 -92s-32 -94 -91 -94z" />
    <glyph glyph-name="semicolon" unicode=";" horiz-adv-x="222" 
d="M110 314c-57 0 -89 36 -89 94s32 92 89 92c59 0 91 -34 91 -92s-32 -94 -91 -94zM53 -158l-36 73c35 13 67 38 79 78c-47 6 -75 38 -75 92c0 59 32 92 90 92s90 -37 90 -105c0 -113 -54 -201 -148 -230z" />
    <glyph glyph-name="less" unicode="&#x3c;" horiz-adv-x="393" 
d="M274 546l65 -85l-162 -149l164 -151l-67 -89l-219 203v68z" />
    <glyph glyph-name="equal" unicode="=" horiz-adv-x="395" 
d="M355 436v-103h-315v103h315zM355 285v-103h-315v103h315z" />
    <glyph glyph-name="greater" unicode="&#x3e;" horiz-adv-x="393" 
d="M122 72l-65 84l162 149l-164 152l67 89l218 -203v-68z" />
    <glyph glyph-name="question" unicode="?" horiz-adv-x="432" 
d="M150 227l-10 186h45c49 0 81 31 81 89c0 50 -23 80 -69 80c-43 0 -69 -26 -82 -78l-120 53c26 125 113 166 219 166c136 0 205 -76 205 -211c0 -124 -70 -186 -140 -209l-10 -76h-119zM205 -9c-57 0 -89 36 -89 94s32 92 89 92c59 0 91 -34 91 -92s-32 -94 -91 -94z" />
    <glyph glyph-name="at" unicode="@" horiz-adv-x="627" 
d="M317 -107c-176 0 -286 138 -286 349c0 213 109 350 286 350s279 -124 279 -314c0 -131 -53 -204 -144 -204c-41 0 -69 15 -90 44c-25 -34 -52 -49 -89 -49c-55 0 -92 36 -92 97c0 77 64 115 131 115h26c-2 43 -28 53 -48 53c-24 0 -41 -12 -53 -36l-63 57
c26 47 72 73 139 73c77 0 135 -41 135 -147v-102c0 -28 9 -44 30 -44c32 0 61 47 61 143c0 177 -97 262 -222 262c-130 0 -230 -98 -230 -298c0 -201 103 -298 230 -298c71 0 128 23 170 81l39 -36c-47 -65 -119 -96 -209 -96zM303 146c22 0 35 18 35 51v23h-13
c-29 0 -48 -20 -48 -45c0 -19 11 -29 26 -29z" />
    <glyph glyph-name="A" unicode="A" horiz-adv-x="580" 
d="M288 492l-50 -250h99zM389 0l-21 98h-161l-21 -98h-179l177 700h214l175 -700h-184z" />
    <glyph glyph-name="B" unicode="B" horiz-adv-x="554" 
d="M53 0v700h288c119 0 178 -82 178 -182c0 -72 -32 -126 -77 -156c63 -25 90 -87 90 -160c0 -131 -69 -202 -194 -202h-285zM286 554h-59v-136h59c39 0 62 29 62 68c0 46 -27 68 -62 68zM293 279h-66v-137h65c40 0 65 21 65 70c0 43 -23 67 -64 67z" />
    <glyph glyph-name="C" unicode="C" horiz-adv-x="561" 
d="M304 -16c-190 0 -274 122 -274 367c0 252 93 365 281 365c119 0 201 -51 236 -207l-151 -47c-16 64 -42 88 -86 88c-61 0 -97 -45 -97 -203c0 -154 36 -202 97 -202c45 0 75 33 90 97l153 -56c-36 -136 -115 -202 -249 -202z" />
    <glyph glyph-name="D" unicode="D" horiz-adv-x="593" 
d="M267 0h-214v700h229c190 0 281 -111 281 -344c0 -232 -96 -356 -296 -356zM267 158c71 0 116 51 116 194c0 129 -33 190 -102 190h-48v-384h34z" />
    <glyph glyph-name="E" unicode="E" horiz-adv-x="524" 
d="M53 0v700h435v-152h-262v-117h222v-155h-222v-123h265v-153h-438z" />
    <glyph glyph-name="F" unicode="F" horiz-adv-x="497" 
d="M53 0v700h428v-159h-248v-126h207v-163h-207v-252h-180z" />
    <glyph glyph-name="G" unicode="G" horiz-adv-x="590" 
d="M277 -16c-149 0 -247 120 -247 367c0 251 93 364 281 365c121 0 207 -51 238 -195l-155 -50c-16 59 -42 80 -85 80c-64 0 -99 -50 -99 -202c0 -158 39 -210 105 -210c39 0 73 29 76 98v7h-79v146h239v-390h-117l-13 68c-29 -52 -77 -84 -144 -84z" />
    <glyph glyph-name="H" unicode="H" horiz-adv-x="625" 
d="M393 0v265h-160v-265h-180v700h180v-268h160v268h180v-700h-180z" />
    <glyph glyph-name="I" unicode="I" horiz-adv-x="286" 
d="M53 0v700h180v-700h-180z" />
    <glyph glyph-name="J" unicode="J" horiz-adv-x="446" 
d="M403 253c0 -196 -101 -269 -239 -269c-54 0 -123 16 -171 66l74 131c26 -23 55 -34 82 -34c45 0 74 28 74 106v447h180v-447z" />
    <glyph glyph-name="K" unicode="K" horiz-adv-x="592" 
d="M234 181v-181h-181v700h181l-2 -270l152 270h206l-195 -286l194 -414h-216l-100 239z" />
    <glyph glyph-name="L" unicode="L" horiz-adv-x="499" 
d="M234 163h245v-163h-426v700h181v-537z" />
    <glyph glyph-name="M" unicode="M" horiz-adv-x="767" 
d="M313 0l-107 364l7 -364h-160v700h196l132 -450l129 450h204v-700h-167l7 380l-111 -380h-130z" />
    <glyph glyph-name="N" unicode="N" horiz-adv-x="625" 
d="M417 0l-200 340l4 -340h-168v700h136l219 -371l-4 371h167v-700h-154z" />
    <glyph glyph-name="O" unicode="O" horiz-adv-x="617" 
d="M307 -16c-196 0 -277 125 -277 367s88 365 279 365c198 0 278 -124 278 -367c0 -242 -89 -365 -280 -365zM309 551c-64 0 -96 -53 -96 -205c0 -147 32 -201 96 -201s94 53 94 204c0 147 -30 202 -94 202z" />
    <glyph glyph-name="P" unicode="P" horiz-adv-x="559" 
d="M53 0v700h272c139 0 208 -106 208 -249c0 -172 -96 -263 -230 -263h-70v-188h-180zM286 535h-53v-187h54c42 0 68 35 68 96c0 54 -22 91 -69 91z" />
    <glyph glyph-name="Q" unicode="Q" horiz-adv-x="617" 
d="M307 -16c-196 0 -277 125 -277 367s88 365 279 365c198 0 278 -124 278 -367c0 -140 -30 -240 -90 -300l61 -135h-146l-35 76c-21 -3 -44 -6 -70 -6zM313 142l-49 104h131c5 26 8 58 8 97c0 150 -28 212 -95 212c-64 0 -97 -53 -97 -209c0 -144 33 -203 95 -204h7z" />
    <glyph glyph-name="R" unicode="R" horiz-adv-x="569" 
d="M295 542h-65v-171h66c42 0 69 29 69 86c0 53 -23 85 -70 85zM230 215v-215h-177v700h280c143 0 209 -99 209 -241c0 -90 -30 -155 -82 -195l84 -264h-192l-61 215h-61z" />
    <glyph glyph-name="S" unicode="S" horiz-adv-x="508" 
d="M479 544l-148 -61c-14 50 -42 79 -85 79c-36 0 -56 -22 -56 -51s21 -49 78 -72l43 -17c123 -49 175 -116 175 -220c0 -133 -82 -218 -241 -218c-128 0 -215 50 -246 172l149 60c16 -60 50 -86 98 -86c42 0 65 26 65 56c0 28 -16 48 -63 66l-41 16
c-146 57 -186 138 -186 231c0 124 79 217 227 217c133 0 211 -71 231 -172z" />
    <glyph glyph-name="T" unicode="T" horiz-adv-x="513" 
d="M14 700h486v-167h-154v-533h-180v533h-152v167z" />
    <glyph glyph-name="U" unicode="U" horiz-adv-x="599" 
d="M376 242v458h180v-449c0 -180 -94 -267 -256 -267c-164 0 -256 89 -256 267v449h180v-458c0 -59 27 -89 76 -89s76 30 76 89z" />
    <glyph glyph-name="V" unicode="V" horiz-adv-x="577" 
d="M292 229l98 471h181l-179 -700h-208l-178 700h186z" />
    <glyph glyph-name="W" unicode="W" horiz-adv-x="787" 
d="M314 700h162l67 -421l63 421h174l-146 -700h-181l-61 413l-61 -413h-178l-147 700h181l62 -419z" />
    <glyph glyph-name="X" unicode="X" horiz-adv-x="582" 
d="M367 0l-84 204l-80 -204h-197l177 351l-170 349h210l76 -206l73 206h196l-171 -345l179 -355h-209z" />
    <glyph glyph-name="Y" unicode="Y" horiz-adv-x="580" 
d="M200 252l-194 448h200l90 -270l89 270h189l-194 -453v-247h-180v252z" />
    <glyph glyph-name="Z" unicode="Z" horiz-adv-x="502" 
d="M18 0v118l244 427l-238 -4v159h448v-116l-239 -429l247 4v-159h-462z" />
    <glyph glyph-name="bracketleft" unicode="[" horiz-adv-x="296" 
d="M45 -153v870h232v-136h-77v-596h78v-138h-233z" />
    <glyph glyph-name="backslash" unicode="\" horiz-adv-x="470" 
d="M277 0l-276 700h187l277 -700h-188z" />
    <glyph glyph-name="bracketright" unicode="]" horiz-adv-x="296" 
d="M248 717v-870h-233v138h78v596h-77v136h232z" />
    <glyph glyph-name="asciicircum" unicode="^" horiz-adv-x="419" 
d="M131 700h157l110 -339v-4h-134l-59 212l-57 -212h-128v4z" />
    <glyph glyph-name="underscore" unicode="_" horiz-adv-x="369" 
d="M372 0v-143h-375v143h375z" />
    <glyph glyph-name="grave" unicode="`" horiz-adv-x="462" 
d="M180 569l-109 134v7h179l63 -136v-5h-133z" />
    <glyph glyph-name="a" unicode="a" horiz-adv-x="460" 
d="M206 101c31 0 50 26 50 74v29h-17c-43 0 -71 -25 -71 -61c0 -26 14 -42 38 -42zM279 0l-8 66c-21 -46 -66 -80 -119 -80c-80 0 -131 52 -131 144c0 115 97 170 198 170h37v2c-3 59 -37 73 -66 73c-34 0 -61 -16 -77 -49l-97 82c39 73 107 108 203 108
c117 0 204 -56 204 -218v-298h-144z" />
    <glyph glyph-name="b" unicode="b" horiz-adv-x="503" 
d="M305 -15c-57 0 -99 26 -131 79l-9 -64h-126v700h173v-252c28 44 71 68 116 68c91 0 152 -86 152 -255c0 -166 -58 -276 -175 -276zM209 247c0 -85 18 -123 52 -123c36 0 55 40 55 124c0 91 -22 127 -52 127c-35 0 -55 -38 -55 -128z" />
    <glyph glyph-name="c" unicode="c" horiz-adv-x="434" 
d="M237 -15c-128 0 -213 77 -213 266c0 184 82 265 220 265c94 0 157 -49 181 -153l-132 -53c-11 41 -28 55 -51 55c-36 0 -58 -25 -58 -115c0 -76 13 -120 58 -120c28 0 45 18 57 58l126 -55c-28 -98 -89 -148 -188 -148z" />
    <glyph glyph-name="d" unicode="d" horiz-adv-x="503" 
d="M294 247c0 93 -19 131 -53 131c-33 0 -52 -40 -52 -128c0 -84 16 -125 53 -125c32 0 52 40 52 122zM326 0l-12 72c-30 -56 -65 -87 -127 -87c-94 0 -163 87 -163 257c0 182 72 274 170 274c43 0 73 -23 99 -61v245h172v-700h-139z" />
    <glyph glyph-name="e" unicode="e" horiz-adv-x="456" 
d="M238 -15c-125 0 -214 86 -214 263c0 166 78 268 212 268c140 0 196 -115 196 -259c0 -19 -1 -39 -3 -58h-244c6 -58 31 -82 71 -82c29 0 50 16 59 49l115 -54c-33 -80 -90 -127 -192 -127zM236 380c-28 0 -52 -26 -53 -80h98c1 49 -16 80 -45 80z" />
    <glyph glyph-name="f" unicode="f" horiz-adv-x="338" 
d="M328 363h-93v-363h-169v363h-55v138h55v31c0 140 81 204 184 204c47 0 86 -13 113 -33l-42 -118c-10 9 -24 12 -38 12c-28 0 -48 -16 -48 -58v-38h93v-138z" />
    <glyph glyph-name="g" unicode="g" horiz-adv-x="502" 
d="M294 261c0 72 -21 115 -54 115s-52 -38 -52 -116c0 -81 19 -119 51 -119c36 0 55 45 55 120zM224 -223c-110 0 -177 42 -211 125l120 69c14 -38 40 -60 78 -60c56 0 81 36 81 117v52c-23 -45 -60 -72 -108 -72c-91 0 -160 78 -160 249c0 174 74 259 179 259
c48 0 88 -27 114 -78l9 63h138v-448c0 -184 -90 -276 -240 -276z" />
    <glyph glyph-name="h" unicode="h" horiz-adv-x="511" 
d="M302 276c0 57 -13 74 -39 74c-30 0 -51 -30 -51 -99v-251h-173v700h173v-288c27 67 71 104 127 104c95 0 136 -84 136 -196v-320h-173v276z" />
    <glyph glyph-name="i" unicode="i" horiz-adv-x="250" 
d="M32 649c0 62 34 94 93 94c60 0 93 -32 93 -94c0 -60 -33 -93 -93 -93c-59 0 -93 33 -93 93zM39 501h173v-501h-173v501z" />
    <glyph glyph-name="j" unicode="j" horiz-adv-x="250" 
d="M125 556c-59 0 -93 33 -93 93c0 62 34 94 93 94c60 0 93 -32 93 -94c0 -60 -33 -93 -93 -93zM39 -21v522h173v-527c0 -133 -74 -197 -176 -197c-55 0 -92 13 -123 32l42 119c10 -8 23 -12 37 -12c29 0 47 17 47 63z" />
    <glyph glyph-name="k" unicode="k" horiz-adv-x="497" 
d="M209 99v-99h-170v700h173l-7 -404l104 205h180l-140 -214l143 -287h-187l-63 153z" />
    <glyph glyph-name="l" unicode="l" horiz-adv-x="250" 
d="M212 700v-700h-173v700h173z" />
    <glyph glyph-name="m" unicode="m" horiz-adv-x="750" 
d="M292 0v280c0 50 -12 69 -35 69c-27 0 -46 -26 -46 -88v-261h-172v501h140l13 -85c29 67 76 100 132 100c63 0 99 -45 118 -103c26 67 72 103 130 103c101 0 142 -83 142 -194v-322h-171v282c0 49 -13 67 -34 67c-25 0 -45 -24 -46 -84v-265h-171z" />
    <glyph glyph-name="n" unicode="n" horiz-adv-x="511" 
d="M39 501h141l13 -89c29 68 77 104 139 104c103 0 143 -84 143 -196v-320h-173v277c0 57 -14 73 -39 73c-30 0 -51 -30 -51 -99v-251h-173v501z" />
    <glyph glyph-name="o" unicode="o" horiz-adv-x="484" 
d="M24 252c0 180 83 264 218 264c145 0 218 -83 218 -264c0 -176 -76 -267 -218 -267c-146 0 -218 89 -218 267zM298 250c0 84 -15 122 -57 122c-41 0 -56 -38 -56 -122c0 -85 17 -124 56 -124s57 39 57 124z" />
    <glyph glyph-name="p" unicode="p" horiz-adv-x="503" 
d="M209 248c0 -87 22 -124 52 -124c37 0 55 39 55 125c0 90 -20 126 -53 126c-32 0 -54 -36 -54 -127zM181 501l12 -79c32 64 81 94 133 94c97 0 154 -91 154 -256c0 -164 -55 -275 -177 -275c-38 0 -68 17 -91 48v-219h-173v687h142z" />
    <glyph glyph-name="q" unicode="q" horiz-adv-x="503" 
d="M196 516c51 0 97 -26 121 -76l10 61h138v-687h-173v230c-27 -38 -65 -59 -105 -59c-97 0 -163 86 -163 257c0 190 71 274 172 274zM294 249c0 92 -21 129 -52 129c-34 0 -54 -37 -54 -129c0 -83 17 -124 51 -124s55 42 55 124z" />
    <glyph glyph-name="r" unicode="r" horiz-adv-x="343" 
d="M39 0v501h141l13 -96c26 71 74 113 133 113l2 -181c-80 6 -117 -58 -116 -155v-182h-173z" />
    <glyph glyph-name="s" unicode="s" horiz-adv-x="402" 
d="M190 102c30 0 45 13 45 31c0 19 -14 29 -50 42l-25 9c-81 29 -139 78 -139 169c0 96 70 163 183 163c103 0 160 -49 185 -126l-114 -51c-9 33 -38 52 -69 52c-24 0 -42 -9 -42 -30c0 -15 11 -25 49 -39l37 -14c90 -34 136 -79 136 -161c0 -92 -64 -161 -192 -161
c-106 0 -169 41 -192 120l110 52c14 -38 39 -56 78 -56z" />
    <glyph glyph-name="t" unicode="t" horiz-adv-x="352" 
d="M344 20c-27 -19 -69 -35 -120 -35c-95 0 -164 53 -164 167v211h-52v138h52v141h169v-141h97v-138h-97v-186c0 -40 20 -57 45 -57c14 0 31 5 43 15z" />
    <glyph glyph-name="u" unicode="u" horiz-adv-x="508" 
d="M469 0h-139l-13 83c-28 -63 -75 -98 -133 -98c-107 0 -149 83 -149 187v329h175v-287c0 -54 12 -71 39 -71s47 26 47 95v263h173v-501z" />
    <glyph glyph-name="v" unicode="v" horiz-adv-x="482" 
d="M8 501h179l56 -297l56 297h176l-147 -501h-175z" />
    <glyph glyph-name="w" unicode="w" horiz-adv-x="656" 
d="M264 500h134l53 -272l40 273h155l-119 -501h-149l-49 278l-49 -278h-150l-118 501h157l44 -271z" />
    <glyph glyph-name="x" unicode="x" horiz-adv-x="481" 
d="M285 0l-52 134l-54 -134h-173l135 254l-127 247h190l44 -133l45 133h173l-129 -250l138 -251h-190z" />
    <glyph glyph-name="y" unicode="y" horiz-adv-x="484" 
d="M149 -30l6 31l-147 500h179l57 -297l56 297h177l-176 -592c-29 -101 -95 -132 -178 -132c-47 0 -81 8 -111 25l23 131c26 -14 51 -18 60 -18c33 0 46 16 54 55z" />
    <glyph glyph-name="z" unicode="z" horiz-adv-x="407" 
d="M19 0v105l174 259h-171v137h358v-110l-169 -254h177v-137h-369z" />
    <glyph glyph-name="braceleft" unicode="{" horiz-adv-x="331" 
d="M284 -164c-100 3 -184 61 -184 169c0 48 6 85 6 127c0 58 -29 82 -83 82h-12v135h12c54 0 83 27 83 85c0 40 -6 78 -6 126c0 107 84 165 184 169l31 -150c-49 0 -75 -26 -75 -79c0 -33 6 -64 6 -99c0 -52 -27 -90 -70 -120c43 -27 69 -66 69 -117c0 -35 -5 -65 -5 -100
c0 -51 26 -79 75 -78z" />
    <glyph glyph-name="bar" unicode="|" horiz-adv-x="258" 
d="M51 -65v831h155v-831h-155z" />
    <glyph glyph-name="braceright" unicode="}" horiz-adv-x="330" 
d="M228 5c0 -108 -84 -166 -184 -169l-31 150c49 -1 75 27 75 78c0 35 -5 65 -5 100c0 51 26 90 69 117c-43 30 -70 68 -70 120c0 35 6 66 6 99c0 53 -26 79 -75 79l31 150c100 -4 184 -62 184 -169c0 -48 -6 -86 -6 -126c0 -58 29 -85 83 -85h12v-135h-12
c-54 0 -83 -24 -83 -82c0 -42 6 -79 6 -127z" />
    <glyph glyph-name="asciitilde" unicode="~" horiz-adv-x="454" 
d="M324 429l109 -19c-7 -112 -58 -170 -128 -170c-30 0 -55 13 -79 26c-23 12 -43 25 -65 25c-17 0 -28 -13 -31 -50l-110 20c9 111 59 169 129 169c30 0 56 -13 79 -26c22 -12 44 -24 64 -24c18 0 29 12 32 49z" />
    <glyph glyph-name="Adieresis" unicode="&#xc4;" horiz-adv-x="580" 
d="M317 849c0 53 29 81 82 81s82 -27 82 -81c0 -55 -29 -83 -82 -83s-82 28 -82 83zM112 849c0 53 30 81 81 81c54 0 83 -27 83 -81c0 -55 -29 -83 -83 -83c-51 0 -81 28 -81 83zM288 492l-50 -250h99zM389 0l-21 98h-161l-21 -98h-179l177 700h214l175 -700h-184z" />
    <glyph glyph-name="Aring" unicode="&#xc5;" horiz-adv-x="580" 
d="M184 858c0 70 45 106 106 106s106 -36 106 -106c0 -71 -45 -108 -106 -108s-106 37 -106 108zM253 858c0 -28 15 -42 37 -42c21 0 37 14 37 42c0 26 -16 41 -37 41c-22 0 -37 -15 -37 -41zM288 492l-50 -250h99zM389 0l-21 98h-161l-21 -98h-179l177 700h214l175 -700
h-184z" />
    <glyph glyph-name="Ccedilla" unicode="&#xc7;" horiz-adv-x="561" 
d="M306 -257c-57 0 -116 24 -138 83l68 45c14 -27 33 -42 59 -42c23 0 40 11 40 35c0 21 -15 35 -39 35c-6 0 -12 -1 -17 -2l-24 14l22 74c-172 11 -247 133 -247 366c0 252 93 365 281 365c119 0 201 -51 236 -207l-151 -47c-16 64 -42 88 -86 88c-61 0 -97 -45 -97 -203
c0 -154 36 -202 97 -202c45 0 75 33 90 97l153 -56c-31 -119 -96 -183 -201 -199l-11 -32h1c45 -6 89 -36 89 -95c0 -80 -58 -117 -125 -117z" />
    <glyph glyph-name="Eacute" unicode="&#xc9;" horiz-adv-x="524" 
d="M434 902l-108 -134h-130v5l67 136h171v-7zM53 0v700h435v-152h-262v-117h222v-155h-222v-123h265v-153h-438z" />
    <glyph glyph-name="Ntilde" unicode="&#xd1;" horiz-adv-x="625" 
d="M375 907h94c6 -101 -44 -133 -88 -133c-49 0 -80 32 -111 32c-17 0 -21 -17 -21 -33h-92c-7 101 43 132 87 132c48 0 80 -30 111 -30c18 0 20 15 20 32zM417 0l-200 340l4 -340h-168v700h136l219 -371l-4 371h167v-700h-154z" />
    <glyph glyph-name="Odieresis" unicode="&#xd6;" horiz-adv-x="617" 
d="M330 849c0 53 29 81 82 81s82 -27 82 -81c0 -55 -29 -83 -82 -83s-82 28 -82 83zM125 849c0 53 30 81 81 81c54 0 83 -27 83 -81c0 -55 -29 -83 -83 -83c-51 0 -81 28 -81 83zM307 -16c-196 0 -277 125 -277 367s88 365 279 365c198 0 278 -124 278 -367
c0 -242 -89 -365 -280 -365zM309 551c-64 0 -96 -53 -96 -205c0 -147 32 -201 96 -201s94 53 94 204c0 147 -30 202 -94 202z" />
    <glyph glyph-name="Udieresis" unicode="&#xdc;" horiz-adv-x="599" 
d="M327 849c0 53 29 81 82 81s82 -27 82 -81c0 -55 -29 -83 -82 -83s-82 28 -82 83zM122 849c0 53 30 81 81 81c54 0 83 -27 83 -81c0 -55 -29 -83 -83 -83c-51 0 -81 28 -81 83zM376 242v458h180v-449c0 -180 -94 -267 -256 -267c-164 0 -256 89 -256 267v449h180v-458
c0 -59 27 -89 76 -89s76 30 76 89z" />
    <glyph glyph-name="aacute" unicode="&#xe1;" horiz-adv-x="460" 
d="M381 703l-108 -134h-130v5l67 136h171v-7zM206 101c31 0 50 26 50 74v29h-17c-43 0 -71 -25 -71 -61c0 -26 14 -42 38 -42zM279 0l-8 66c-21 -46 -66 -80 -119 -80c-80 0 -131 52 -131 144c0 115 97 170 198 170h37v2c-3 59 -37 73 -66 73c-34 0 -61 -16 -77 -49l-97 82
c39 73 107 108 203 108c117 0 204 -56 204 -218v-298h-144z" />
    <glyph glyph-name="agrave" unicode="&#xe0;" horiz-adv-x="460" 
d="M167 570l-109 134v7h179l63 -136v-5h-133zM206 101c31 0 50 26 50 74v29h-17c-43 0 -71 -25 -71 -61c0 -26 14 -42 38 -42zM279 0l-8 66c-21 -46 -66 -80 -119 -80c-80 0 -131 52 -131 144c0 115 97 170 198 170h37v2c-3 59 -37 73 -66 73c-34 0 -61 -16 -77 -49l-97 82
c39 73 107 108 203 108c117 0 204 -56 204 -218v-298h-144z" />
    <glyph glyph-name="acircumflex" unicode="&#xe2;" horiz-adv-x="460" 
d="M218 622l-40 -53h-119v4l96 137h136l95 -137v-4h-125zM206 101c31 0 50 26 50 74v29h-17c-43 0 -71 -25 -71 -61c0 -26 14 -42 38 -42zM279 0l-8 66c-21 -46 -66 -80 -119 -80c-80 0 -131 52 -131 144c0 115 97 170 198 170h37v2c-3 59 -37 73 -66 73
c-34 0 -61 -16 -77 -49l-97 82c39 73 107 108 203 108c117 0 204 -56 204 -218v-298h-144z" />
    <glyph glyph-name="adieresis" unicode="&#xe4;" horiz-adv-x="460" 
d="M248 650c0 53 29 81 82 81s82 -27 82 -81c0 -55 -29 -83 -82 -83s-82 28 -82 83zM43 650c0 53 30 81 81 81c54 0 83 -27 83 -81c0 -55 -29 -83 -83 -83c-51 0 -81 28 -81 83zM206 101c31 0 50 26 50 74v29h-17c-43 0 -71 -25 -71 -61c0 -26 14 -42 38 -42zM279 0l-8 66
c-21 -46 -66 -80 -119 -80c-80 0 -131 52 -131 144c0 115 97 170 198 170h37v2c-3 59 -37 73 -66 73c-34 0 -61 -16 -77 -49l-97 82c39 73 107 108 203 108c117 0 204 -56 204 -218v-298h-144z" />
    <glyph glyph-name="atilde" unicode="&#xe3;" horiz-adv-x="460" 
d="M284 708h94c6 -101 -44 -133 -88 -133c-49 0 -80 32 -111 32c-17 0 -21 -17 -21 -33h-92c-7 101 43 132 87 132c48 0 80 -30 111 -30c18 0 20 15 20 32zM206 101c31 0 50 26 50 74v29h-17c-43 0 -71 -25 -71 -61c0 -26 14 -42 38 -42zM279 0l-8 66
c-21 -46 -66 -80 -119 -80c-80 0 -131 52 -131 144c0 115 97 170 198 170h37v2c-3 59 -37 73 -66 73c-34 0 -61 -16 -77 -49l-97 82c39 73 107 108 203 108c117 0 204 -56 204 -218v-298h-144z" />
    <glyph glyph-name="aring" unicode="&#xe5;" horiz-adv-x="460" 
d="M115 659c0 70 45 106 106 106s106 -36 106 -106c0 -71 -45 -108 -106 -108s-106 37 -106 108zM184 659c0 -28 15 -42 37 -42c21 0 37 14 37 42c0 26 -16 41 -37 41c-22 0 -37 -15 -37 -41zM206 101c31 0 50 26 50 74v29h-17c-43 0 -71 -25 -71 -61c0 -26 14 -42 38 -42z
M279 0l-8 66c-21 -46 -66 -80 -119 -80c-80 0 -131 52 -131 144c0 115 97 170 198 170h37v2c-3 59 -37 73 -66 73c-34 0 -61 -16 -77 -49l-97 82c39 73 107 108 203 108c117 0 204 -56 204 -218v-298h-144z" />
    <glyph glyph-name="ccedilla" unicode="&#xe7;" horiz-adv-x="434" 
d="M229 -257c-57 0 -115 24 -138 83l68 45c14 -27 34 -42 60 -42c22 0 40 11 40 35c0 21 -15 35 -40 35c-6 0 -11 -1 -16 -2l-25 14l23 76c-109 14 -177 93 -177 264c0 184 83 265 221 265c93 0 155 -49 180 -153l-131 -53c-12 41 -29 55 -52 55c-36 0 -58 -25 -58 -115
c0 -78 13 -125 58 -125c30 0 49 22 60 60l124 -53c-24 -79 -71 -131 -150 -144l-11 -33h1c45 -6 88 -36 88 -95c0 -80 -57 -117 -125 -117z" />
    <glyph glyph-name="eacute" unicode="&#xe9;" horiz-adv-x="453" 
d="M390 703l-108 -134h-130v5l67 136h171v-7zM238 -15c-125 0 -214 86 -214 263c0 166 78 268 212 268c140 0 196 -115 196 -259c0 -19 -1 -39 -3 -58h-244c6 -58 31 -82 71 -82c29 0 50 16 59 49l115 -54c-33 -80 -90 -127 -192 -127zM236 380c-28 0 -52 -26 -53 -80h98
c1 49 -16 80 -45 80z" />
    <glyph glyph-name="egrave" unicode="&#xe8;" horiz-adv-x="453" 
d="M176 570l-109 134v7h179l63 -136v-5h-133zM238 -15c-125 0 -214 86 -214 263c0 166 78 268 212 268c140 0 196 -115 196 -259c0 -19 -1 -39 -3 -58h-244c6 -58 31 -82 71 -82c29 0 50 16 59 49l115 -54c-33 -80 -90 -127 -192 -127zM236 380c-28 0 -52 -26 -53 -80h98
c1 49 -16 80 -45 80z" />
    <glyph glyph-name="ecircumflex" unicode="&#xea;" horiz-adv-x="453" 
d="M228 622l-40 -53h-119v4l96 137h136l95 -137v-4h-125zM238 -15c-125 0 -214 86 -214 263c0 166 78 268 212 268c140 0 196 -115 196 -259c0 -19 -1 -39 -3 -58h-244c6 -58 31 -82 71 -82c29 0 50 16 59 49l115 -54c-33 -80 -90 -127 -192 -127zM236 380
c-28 0 -52 -26 -53 -80h98c1 49 -16 80 -45 80z" />
    <glyph glyph-name="edieresis" unicode="&#xeb;" horiz-adv-x="453" 
d="M257 650c0 53 29 81 82 81s82 -27 82 -81c0 -55 -29 -83 -82 -83s-82 28 -82 83zM52 650c0 53 30 81 81 81c54 0 83 -27 83 -81c0 -55 -29 -83 -83 -83c-51 0 -81 28 -81 83zM238 -15c-125 0 -214 86 -214 263c0 166 78 268 212 268c140 0 196 -115 196 -259
c0 -19 -1 -39 -3 -58h-244c6 -58 31 -82 71 -82c29 0 50 16 59 49l115 -54c-33 -80 -90 -127 -192 -127zM236 380c-28 0 -52 -26 -53 -80h98c1 49 -16 80 -45 80z" />
    <glyph glyph-name="iacute" unicode="&#xed;" horiz-adv-x="250" 
d="M284 703l-108 -134h-130v5l67 136h171v-7zM39 501h173v-501h-173v501z" />
    <glyph glyph-name="igrave" unicode="&#xec;" horiz-adv-x="250" 
d="M70 569l-109 134v7h179l63 -136v-5h-133zM39 501h173v-501h-173v501z" />
    <glyph glyph-name="icircumflex" unicode="&#xee;" horiz-adv-x="250" 
d="M121 622l-40 -53h-119v4l96 137h136l95 -137v-4h-125zM39 501h173v-501h-173v501z" />
    <glyph glyph-name="idieresis" unicode="&#xef;" horiz-adv-x="250" 
d="M151 650c0 53 29 81 82 81s82 -27 82 -81c0 -55 -29 -83 -82 -83s-82 28 -82 83zM-54 650c0 53 30 81 81 81c54 0 83 -27 83 -81c0 -55 -29 -83 -83 -83c-51 0 -81 28 -81 83zM39 501h173v-501h-173v501z" />
    <glyph glyph-name="ntilde" unicode="&#xf1;" horiz-adv-x="511" 
d="M337 708h94c6 -101 -44 -133 -88 -133c-49 0 -80 32 -111 32c-17 0 -21 -17 -21 -33h-92c-7 101 43 132 87 132c48 0 80 -30 111 -30c18 0 20 15 20 32zM39 501h141l13 -89c29 68 77 104 139 104c103 0 143 -84 143 -196v-320h-173v277c0 57 -14 73 -39 73
c-30 0 -51 -30 -51 -99v-251h-173v501z" />
    <glyph glyph-name="oacute" unicode="&#xf3;" horiz-adv-x="484" 
d="M401 703l-108 -134h-130v5l67 136h171v-7zM24 252c0 180 83 264 218 264c145 0 218 -83 218 -264c0 -176 -76 -267 -218 -267c-146 0 -218 89 -218 267zM298 250c0 84 -15 122 -57 122c-41 0 -56 -38 -56 -122c0 -85 17 -124 56 -124s57 39 57 124z" />
    <glyph glyph-name="ograve" unicode="&#xf2;" horiz-adv-x="484" 
d="M187 569l-109 134v7h179l63 -136v-5h-133zM24 252c0 180 83 264 218 264c145 0 218 -83 218 -264c0 -176 -76 -267 -218 -267c-146 0 -218 89 -218 267zM298 250c0 84 -15 122 -57 122c-41 0 -56 -38 -56 -122c0 -85 17 -124 56 -124s57 39 57 124z" />
    <glyph glyph-name="ocircumflex" unicode="&#xf4;" horiz-adv-x="484" 
d="M238 622l-40 -53h-119v4l96 137h136l95 -137v-4h-125zM24 252c0 180 83 264 218 264c145 0 218 -83 218 -264c0 -176 -76 -267 -218 -267c-146 0 -218 89 -218 267zM298 250c0 84 -15 122 -57 122c-41 0 -56 -38 -56 -122c0 -85 17 -124 56 -124s57 39 57 124z" />
    <glyph glyph-name="odieresis" unicode="&#xf6;" horiz-adv-x="484" 
d="M268 650c0 53 29 81 82 81s82 -27 82 -81c0 -55 -29 -83 -82 -83s-82 28 -82 83zM63 650c0 53 30 81 81 81c54 0 83 -27 83 -81c0 -55 -29 -83 -83 -83c-51 0 -81 28 -81 83zM24 252c0 180 83 264 218 264c145 0 218 -83 218 -264c0 -176 -76 -267 -218 -267
c-146 0 -218 89 -218 267zM298 250c0 84 -15 122 -57 122c-41 0 -56 -38 -56 -122c0 -85 17 -124 56 -124s57 39 57 124z" />
    <glyph glyph-name="otilde" unicode="&#xf5;" horiz-adv-x="484" 
d="M304 708h94c6 -101 -44 -133 -88 -133c-49 0 -80 32 -111 32c-17 0 -21 -17 -21 -33h-92c-7 101 43 132 87 132c48 0 80 -30 111 -30c18 0 20 15 20 32zM24 252c0 180 83 264 218 264c145 0 218 -83 218 -264c0 -176 -76 -267 -218 -267c-146 0 -218 89 -218 267z
M298 250c0 84 -15 122 -57 122c-41 0 -56 -38 -56 -122c0 -85 17 -124 56 -124s57 39 57 124z" />
    <glyph glyph-name="uacute" unicode="&#xfa;" horiz-adv-x="508" 
d="M411 703l-108 -134h-130v5l67 136h171v-7zM469 0h-139l-13 83c-28 -63 -75 -98 -133 -98c-107 0 -149 83 -149 187v329h175v-287c0 -54 12 -71 39 -71s47 26 47 95v263h173v-501z" />
    <glyph glyph-name="ugrave" unicode="&#xf9;" horiz-adv-x="508" 
d="M197 569l-109 134v7h179l63 -136v-5h-133zM469 0h-139l-13 83c-28 -63 -75 -98 -133 -98c-107 0 -149 83 -149 187v329h175v-287c0 -54 12 -71 39 -71s47 26 47 95v263h173v-501z" />
    <glyph glyph-name="ucircumflex" unicode="&#xfb;" horiz-adv-x="508" 
d="M248 622l-40 -53h-119v4l96 137h136l95 -137v-4h-125zM469 0h-139l-13 83c-28 -63 -75 -98 -133 -98c-107 0 -149 83 -149 187v329h175v-287c0 -54 12 -71 39 -71s47 26 47 95v263h173v-501z" />
    <glyph glyph-name="udieresis" unicode="&#xfc;" horiz-adv-x="508" 
d="M278 650c0 53 29 81 82 81s82 -27 82 -81c0 -55 -29 -83 -82 -83s-82 28 -82 83zM73 650c0 53 30 81 81 81c54 0 83 -27 83 -81c0 -55 -29 -83 -83 -83c-51 0 -81 28 -81 83zM469 0h-139l-13 83c-28 -63 -75 -98 -133 -98c-107 0 -149 83 -149 187v329h175v-287
c0 -54 12 -71 39 -71s47 26 47 95v263h173v-501z" />
    <glyph glyph-name="dagger" unicode="&#x2020;" horiz-adv-x="250" 
d="M235 480h-48l-2 -221h-123v221h-48v120h47l-1 114h130l-1 -114h46v-120z" />
    <glyph glyph-name="degree" unicode="&#xb0;" horiz-adv-x="364" 
d="M183 350c-94 0 -149 73 -149 183s55 182 149 182c93 0 147 -72 147 -182s-54 -183 -147 -183zM183 617c-32 0 -56 -28 -56 -84s24 -86 56 -86c30 0 53 30 53 86s-23 84 -53 84z" />
    <glyph glyph-name="cent" unicode="&#xa2;" horiz-adv-x="428" 
d="M415 135c-29 -69 -74 -119 -150 -130v-67h-68v66c-106 13 -174 88 -174 255c0 161 64 240 174 254v67h68v-66c76 -11 128 -58 149 -135l-110 -60c-9 26 -22 41 -39 49v-226c19 8 34 25 42 53zM155 256c0 -57 14 -93 42 -110v221c-27 -15 -42 -48 -42 -111z" />
    <glyph glyph-name="sterling" unicode="&#xa3;" horiz-adv-x="514" 
d="M512 90c-40 -64 -100 -90 -188 -90h-302v150h21c20 0 31 31 30 80v51h-51v118h47l-3 82c-5 190 118 235 217 235c114 0 183 -53 217 -160l-133 -63c-17 41 -36 65 -73 65c-45 0 -63 -35 -60 -98l2 -61h103v-118h-97v-43c0 -29 -3 -66 -15 -89h101c31 0 68 18 93 54z" />
    <glyph glyph-name="section" unicode="&#xa7;" horiz-adv-x="402" 
d="M149 345c0 -24 10 -41 36 -51l14 -6c24 -11 47 8 47 40c0 24 -8 37 -33 48l-14 7c-26 11 -50 -6 -50 -38zM191 -35c-100 0 -157 39 -187 111l104 54c15 -37 37 -56 74 -56c32 0 46 14 46 36c0 24 -11 35 -48 47l-25 9c-69 23 -130 69 -130 159c0 47 20 91 53 119
c-27 27 -44 64 -44 111c0 87 59 159 168 159c91 0 150 -36 182 -114l-109 -56c-9 33 -34 51 -67 51c-25 0 -43 -12 -43 -33s9 -36 48 -49l38 -12c82 -27 125 -72 125 -150c0 -46 -19 -91 -57 -119c33 -27 48 -62 48 -111c0 -81 -52 -156 -176 -156z" />
    <glyph glyph-name="bullet" unicode="&#x2022;" horiz-adv-x="332" 
d="M26 327c0 87 52 145 140 145s139 -58 139 -145s-51 -145 -139 -145s-140 58 -140 145z" />
    <glyph glyph-name="paragraph" unicode="&#xb6;" horiz-adv-x="559" 
d="M339 340h37v199h-37v-199zM157 444c0 -60 20 -104 58 -104h2v199h-2c-42 0 -58 -48 -58 -95zM217 0v190h2c-105 11 -194 98 -194 251c0 160 84 259 204 259h270v-700h-123v188h-37v-188h-122z" />
    <glyph glyph-name="germandbls" unicode="&#xdf;" horiz-adv-x="542" 
d="M281 290h-32v148h25c35 0 59 28 59 75c0 42 -22 71 -60 71c-41 0 -64 -30 -64 -88v-496h-170v480c0 157 79 250 236 250c140 0 221 -74 221 -203c0 -67 -34 -116 -79 -145c70 -26 101 -95 101 -179c0 -139 -80 -210 -192 -210c-32 0 -61 5 -85 16l15 128
c10 -4 21 -7 33 -7c32 0 62 21 62 78c0 52 -26 82 -70 82z" />
    <glyph glyph-name="registered" unicode="&#xae;" horiz-adv-x="364" 
d="M182 330c-98 0 -159 75 -159 193c0 117 61 194 159 194s158 -77 158 -194c0 -118 -60 -193 -158 -193zM182 360c69 0 126 54 126 163s-57 163 -126 163s-126 -54 -126 -163s57 -163 126 -163zM181 575h-15v-45h15c15 0 21 7 21 22s-6 23 -21 23zM115 429v194h78
c36 0 59 -28 59 -72c0 -25 -9 -44 -23 -55l26 -67h-56l-15 53h-18v-53h-51z" />
    <glyph glyph-name="copyright" unicode="&#xa9;" horiz-adv-x="643" 
d="M34 350c0 215 111 350 288 350s287 -135 287 -350s-110 -350 -287 -350s-288 135 -288 350zM91 350c0 -202 101 -298 231 -298s230 96 230 298c0 201 -100 298 -230 298s-231 -97 -231 -298zM469 270c-28 -76 -76 -110 -143 -110c-91 0 -157 52 -157 196
c0 140 64 197 163 197c66 0 109 -31 135 -100l-94 -51c-9 29 -22 43 -45 43c-28 0 -47 -21 -47 -92c0 -68 21 -89 50 -89c21 0 38 15 47 46z" />
    <glyph glyph-name="trademark" unicode="&#x2122;" horiz-adv-x="597" 
d="M9 700h232v-88h-70v-206h-89v206h-73v88zM262 406v294h101l56 -186l61 186h93v-294h-81l2 131l-39 -131h-75l-38 132l1 -132h-81z" />
    <glyph glyph-name="acute" unicode="&#xb4;" horiz-adv-x="462" 
d="M382 703l-108 -134h-130v5l67 136h171v-7z" />
    <glyph glyph-name="dieresis" unicode="&#xa8;" horiz-adv-x="462" 
d="M257 650c0 53 29 81 82 81s82 -27 82 -81c0 -55 -29 -83 -82 -83s-82 28 -82 83zM52 650c0 53 30 81 81 81c54 0 83 -27 83 -81c0 -55 -29 -83 -83 -83c-51 0 -81 28 -81 83z" />
    <glyph glyph-name="notequal" unicode="&#x2260;" horiz-adv-x="395" 
d="M40 333v103h182l35 67h86l-34 -67h46v-103h-101l-25 -48h126v-103h-181l-35 -66h-86l35 66h-48v103h103l24 48h-127z" />
    <glyph glyph-name="AE" unicode="&#xc6;" horiz-adv-x="820" 
d="M289 495l-54 -253h106zM396 0l-20 95h-176l-20 -95h-176l191 700h587v-152h-334l26 -116h270v-156h-236l28 -123h254v-153h-394z" />
    <glyph glyph-name="Oslash" unicode="&#xd8;" horiz-adv-x="623" 
d="M312 -16c-67 0 -121 15 -163 47l-20 -31h-102l63 95c-37 60 -55 146 -55 256c0 242 88 365 279 365c67 0 119 -14 161 -45l18 29h106l-63 -94c38 -60 56 -146 56 -257c0 -242 -89 -365 -280 -365zM218 346c0 -23 1 -44 4 -59l154 233c-15 22 -36 31 -63 31
c-64 0 -95 -53 -95 -205zM313 145c64 0 95 53 95 204c0 25 -2 48 -5 66l-155 -236c15 -24 37 -34 65 -34z" />
    <glyph glyph-name="plusminus" unicode="&#xb1;" horiz-adv-x="395" 
d="M251 157h-106v124h-105v103h105v126h106v-126h104v-103h-104v-124zM355 102v-102h-315v102h315z" />
    <glyph glyph-name="lessequal" unicode="&#x2264;" horiz-adv-x="453" 
d="M319 542l52 -84l-156 -111l156 -109l-52 -90l-237 166v62zM76 0v104h298v-104h-298z" />
    <glyph glyph-name="greaterequal" unicode="&#x2265;" horiz-adv-x="453" 
d="M133 148l-51 85l157 110l-157 110l51 89l239 -165v-62zM374 104v-104h-298v104h298z" />
    <glyph glyph-name="yen" unicode="&#xa5;" horiz-adv-x="580" 
d="M512 204h-131v-204h-182v204h-129v88h110l-17 41h-93v87h55l-119 280h202l89 -273l86 273h191l-120 -280h58v-87h-96l-15 -41h111v-88z" />
    <glyph glyph-name="ordfeminine" unicode="&#xaa;" horiz-adv-x="326" 
d="M149 418c23 0 33 25 33 66v12h-21c-21 0 -37 -18 -37 -44c0 -21 10 -34 25 -34zM193 395c-18 -36 -46 -56 -86 -56c-54 0 -92 35 -92 99c0 78 61 123 130 123h37c-1 44 -25 53 -49 53c-32 0 -56 -14 -73 -39l-48 75c33 43 84 66 148 66c80 0 144 -39 144 -157v-211h-104z
" />
    <glyph glyph-name="ordmasculine" unicode="&#xba;" horiz-adv-x="348" 
d="M18 526c0 129 59 190 156 190c104 0 156 -60 156 -190c0 -126 -54 -189 -156 -189c-105 0 -156 62 -156 189zM214 526c0 60 -12 87 -41 87s-39 -27 -39 -87c0 -61 11 -90 39 -90s41 29 41 90z" />
    <glyph glyph-name="ae" unicode="&#xe6;" horiz-adv-x="694" 
d="M479 -15c-66 0 -122 29 -156 88c-31 -53 -89 -87 -154 -87c-90 0 -148 51 -148 144c0 114 97 170 198 170h37c-3 60 -35 76 -67 76c-33 0 -60 -17 -76 -50l-97 82c39 73 107 108 202 108c52 0 96 -18 124 -63c33 41 78 63 134 63c141 0 195 -116 195 -256
c0 -19 -1 -39 -3 -58h-243c7 -59 31 -85 71 -85c29 0 49 16 59 49l114 -54c-32 -80 -88 -127 -190 -127zM476 380c-28 0 -50 -25 -52 -81h98c0 49 -16 81 -46 81zM205 101c32 0 51 26 51 74v28h-17c-43 0 -71 -25 -71 -60c0 -26 14 -42 37 -42z" />
    <glyph glyph-name="oslash" unicode="&#xf8;" horiz-adv-x="491" 
d="M247 -15c-56 0 -100 12 -134 37l-17 -22h-84l55 72c-26 45 -39 103 -39 180c0 180 84 264 219 264c54 0 100 -11 133 -36l15 21h85l-53 -72c25 -43 37 -101 37 -177c0 -176 -76 -267 -217 -267zM246 383c-45 0 -60 -42 -60 -133c0 -11 0 -23 1 -30l97 141
c-9 14 -21 22 -38 22zM246 115c43 0 59 41 59 135c0 10 -2 22 -2 30l-97 -143c10 -14 22 -22 40 -22z" />
    <glyph glyph-name="questiondown" unicode="&#xbf;" horiz-adv-x="418" 
d="M204 520c57 0 89 -36 89 -94s-32 -92 -89 -92c-59 0 -91 34 -91 92s32 94 91 94zM259 284l10 -186h-45c-49 0 -81 -31 -81 -89c0 -50 23 -80 69 -80c43 0 69 26 82 78l120 -53c-26 -125 -113 -166 -219 -166c-136 0 -205 76 -205 211c0 124 70 186 140 209l10 76h119z
" />
    <glyph glyph-name="exclamdown" unicode="&#xa1;" horiz-adv-x="219" 
d="M106 521c57 0 90 -36 90 -94s-33 -92 -90 -92c-59 0 -90 34 -90 92s31 94 90 94zM20 -189l26 474h119l25 -474h-170z" />
    <glyph glyph-name="florin" unicode="&#x192;" horiz-adv-x="374" 
d="M22 -223c-31 0 -74 6 -98 26l36 120c11 -8 23 -11 34 -11c31 0 44 20 50 73l31 260h-56l20 138h52l4 38c17 141 89 206 187 206c50 0 90 -13 113 -30l-41 -115c-8 5 -23 11 -36 11c-32 0 -52 -21 -57 -74l-4 -36h92l-19 -138h-91l-29 -268c-15 -134 -92 -200 -188 -200z
" />
    <glyph glyph-name="approxequal" unicode="&#x2248;" horiz-adv-x="395" 
d="M271 414c20 0 58 6 84 29v-102c-22 -17 -61 -26 -90 -26c-56 0 -87 34 -138 34c-22 0 -59 -5 -87 -28v102c23 17 59 25 89 25c57 0 89 -34 142 -34zM271 262c20 0 58 6 84 29v-103c-22 -17 -61 -26 -90 -26c-56 0 -87 34 -138 34c-22 0 -59 -5 -87 -28v103
c23 17 59 25 89 25c57 0 89 -34 142 -34z" />
    <glyph glyph-name="guillemotleft" unicode="&#xab;" horiz-adv-x="571" 
d="M176 0l-153 249v3l152 249h162l-154 -248l158 -253h-165zM399 0l-161 251v3l154 247h162l-154 -246l163 -255h-164z" />
    <glyph glyph-name="guillemotright" unicode="&#xbb;" horiz-adv-x="571" 
d="M392 501l153 -249v-3l-152 -249h-162l154 248l-158 253h165zM169 501l161 -251v-3l-154 -247h-162l154 246l-163 255h164z" />
    <glyph glyph-name="ellipsis" unicode="&#x2026;" horiz-adv-x="659" 
d="M548 -9c-57 0 -90 36 -90 94s33 92 90 92c59 0 90 -34 90 -92s-31 -94 -90 -94zM329 -9c-57 0 -90 36 -90 94s33 92 90 92c59 0 91 -34 91 -92s-32 -94 -91 -94zM110 -9c-57 0 -89 36 -89 94s32 92 89 92c59 0 91 -34 91 -92s-32 -94 -91 -94z" />
    <glyph glyph-name="nbspace" unicode="&#xa0;" horiz-adv-x="135" 
 />
    <glyph glyph-name="Agrave" unicode="&#xc0;" horiz-adv-x="580" 
d="M236 768l-109 134v7h179l63 -136v-5h-133zM288 492l-50 -250h99zM389 0l-21 98h-161l-21 -98h-179l177 700h214l175 -700h-184z" />
    <glyph glyph-name="Atilde" unicode="&#xc3;" horiz-adv-x="580" 
d="M353 907h94c6 -101 -44 -133 -88 -133c-49 0 -80 32 -111 32c-17 0 -21 -17 -21 -33h-92c-7 101 43 132 87 132c48 0 80 -30 111 -30c18 0 20 15 20 32zM288 492l-50 -250h99zM389 0l-21 98h-161l-21 -98h-179l177 700h214l175 -700h-184z" />
    <glyph glyph-name="Otilde" unicode="&#xd5;" horiz-adv-x="617" 
d="M366 907h94c6 -101 -44 -133 -88 -133c-49 0 -80 32 -111 32c-17 0 -21 -17 -21 -33h-92c-7 101 43 132 87 132c48 0 80 -30 111 -30c18 0 20 15 20 32zM307 -16c-196 0 -277 125 -277 367s88 365 279 365c198 0 278 -124 278 -367c0 -242 -89 -365 -280 -365zM309 551
c-64 0 -96 -53 -96 -205c0 -147 32 -201 96 -201s94 53 94 204c0 147 -30 202 -94 202z" />
    <glyph glyph-name="OE" unicode="&#x152;" horiz-adv-x="836" 
d="M316 0c-186 0 -286 115 -286 350c0 230 91 350 287 350h481v-152h-257v-116h219v-156h-219v-123h265v-153h-490zM324 542c-73 0 -111 -51 -111 -193c0 -131 31 -192 101 -192h55v385h-45z" />
    <glyph glyph-name="oe" unicode="&#x153;" horiz-adv-x="732" 
d="M518 -15c-57 0 -106 20 -141 66c-33 -43 -79 -66 -138 -66c-143 0 -216 89 -216 267c0 180 83 264 216 264c62 0 109 -21 141 -66c34 44 81 66 137 66c139 0 193 -115 192 -259c1 -19 1 -39 -3 -58h-242c8 -58 32 -82 71 -82c29 0 49 16 59 49l114 -54
c-32 -80 -88 -127 -190 -127zM515 381c-29 0 -51 -26 -53 -83h99c0 51 -17 83 -46 83zM295 250c0 84 -15 122 -56 122c-42 0 -57 -38 -57 -122c0 -87 17 -125 57 -125c39 0 56 38 56 125z" />
    <glyph glyph-name="endash" unicode="&#x2013;" horiz-adv-x="454" 
d="M415 410v-146h-375v146h375z" />
    <glyph glyph-name="emdash" unicode="&#x2014;" horiz-adv-x="605" 
d="M567 410v-146h-527v146h527z" />
    <glyph glyph-name="quotedblleft" unicode="&#x201c;" horiz-adv-x="398" 
d="M345 756l33 -69c-32 -12 -62 -36 -73 -73c44 -6 70 -36 70 -87c0 -56 -30 -87 -84 -87c-53 0 -83 35 -83 99c0 107 50 190 137 217zM153 756l33 -69c-32 -12 -62 -36 -73 -73c44 -6 70 -36 70 -87c0 -56 -30 -87 -84 -87c-53 0 -83 35 -83 99c0 107 50 190 137 217z" />
    <glyph glyph-name="quotedblright" unicode="&#x201d;" horiz-adv-x="398" 
d="M243 432l-33 69c32 12 61 36 72 73c-43 6 -69 36 -69 87c0 56 30 87 83 87c54 0 83 -35 83 -99c0 -107 -50 -190 -136 -217zM50 432l-33 69c32 12 61 36 72 73c-43 6 -69 36 -69 87c0 56 30 87 83 87c54 0 83 -35 83 -99c0 -107 -50 -190 -136 -217z" />
    <glyph glyph-name="quoteleft" unicode="&#x2018;" horiz-adv-x="206" 
d="M153 756l33 -69c-32 -12 -62 -36 -73 -73c44 -6 70 -36 70 -87c0 -56 -30 -87 -84 -87c-53 0 -83 35 -83 99c0 107 50 190 137 217z" />
    <glyph glyph-name="quoteright" unicode="&#x2019;" horiz-adv-x="206" 
d="M50 432l-33 69c32 12 61 36 72 73c-43 6 -69 36 -69 87c0 56 30 87 83 87c54 0 83 -35 83 -99c0 -107 -50 -190 -136 -217z" />
    <glyph glyph-name="divide" unicode="&#xf7;" horiz-adv-x="395" 
d="M123 493c0 49 31 81 74 81c46 0 76 -32 76 -81c0 -48 -30 -81 -76 -81c-43 0 -74 33 -74 81zM355 362v-103h-315v103h315zM123 130c0 48 31 81 74 81c46 0 76 -33 76 -81c0 -49 -30 -81 -76 -81c-43 0 -74 32 -74 81z" />
    <glyph glyph-name="ydieresis" unicode="&#xff;" horiz-adv-x="484" 
d="M267 650c0 53 29 81 82 81s82 -27 82 -81c0 -55 -29 -83 -82 -83s-82 28 -82 83zM62 650c0 53 30 81 81 81c54 0 83 -27 83 -81c0 -55 -29 -83 -83 -83c-51 0 -81 28 -81 83zM149 -30l6 31l-147 500h179l57 -297l56 297h177l-176 -592c-29 -101 -95 -132 -178 -132
c-47 0 -81 8 -111 25l23 131c26 -14 51 -18 60 -18c33 0 46 16 54 55z" />
    <glyph glyph-name="Ydieresis" unicode="&#x178;" horiz-adv-x="580" 
d="M325 849c0 53 29 81 82 81s82 -27 82 -81c0 -55 -29 -83 -82 -83s-82 28 -82 83zM120 849c0 53 30 81 81 81c54 0 83 -27 83 -81c0 -55 -29 -83 -83 -83c-51 0 -81 28 -81 83zM200 252l-194 448h200l90 -270l89 270h189l-194 -453v-247h-180v252z" />
    <glyph glyph-name="fraction" unicode="&#x2044;" horiz-adv-x="466" 
d="M425 700l-271 -700h-140l271 700h140z" />
    <glyph glyph-name="guilsinglleft" unicode="&#x2039;" horiz-adv-x="347" 
d="M175 0l-152 249v3l151 249h162l-153 -248l156 -253h-164z" />
    <glyph glyph-name="guilsinglright" unicode="&#x203a;" horiz-adv-x="347" 
d="M169 501l152 -249v-3l-151 -249h-162l153 248l-156 253h164z" />
    <glyph glyph-name="daggerdbl" unicode="&#x2021;" horiz-adv-x="250" 
d="M14 462h49v50h-49v120h47l-1 82h130v-82h45v-120h-49v-50h49v-119h-45v-84h-130l1 84h-47v119z" />
    <glyph glyph-name="periodcentered" unicode="&#xb7;" horiz-adv-x="218" 
d="M110 245c-57 0 -89 36 -89 94s32 92 89 92c59 0 91 -34 91 -92s-32 -94 -91 -94z" />
    <glyph glyph-name="quotesinglbase" unicode="&#x201a;" horiz-adv-x="208" 
d="M50 -148l-33 68c32 13 61 36 72 73c-43 6 -69 36 -69 87c0 55 30 86 83 86s83 -35 83 -99c0 -105 -50 -188 -136 -215z" />
    <glyph glyph-name="quotedblbase" unicode="&#x201e;" horiz-adv-x="397" 
d="M242 -148l-33 68c32 13 61 36 72 73c-43 6 -69 36 -69 87c0 55 30 86 83 86s83 -35 83 -99c0 -105 -50 -188 -136 -215zM50 -148l-33 68c32 13 61 36 72 73c-43 6 -69 36 -69 87c0 55 30 86 83 86s83 -35 83 -99c0 -105 -50 -188 -136 -215z" />
    <glyph glyph-name="perthousand" unicode="&#x2030;" horiz-adv-x="1200" 
d="M17 500c0 143 47 216 158 216c112 0 160 -73 160 -216c0 -145 -48 -217 -160 -217c-111 0 -158 73 -158 217zM629 700l-271 -700h-140l271 700h140zM216 500c0 89 -15 117 -41 117c-25 0 -39 -29 -39 -117c0 -89 14 -119 40 -119c25 0 40 30 40 119zM864 207
c0 143 47 216 158 216c112 0 160 -73 160 -216c0 -145 -48 -217 -160 -217c-111 0 -158 73 -158 217zM515 207c0 143 47 216 158 216c112 0 160 -73 160 -216c0 -145 -48 -217 -160 -217c-111 0 -158 73 -158 217zM1063 207c0 89 -15 117 -41 117c-25 0 -39 -29 -39 -117
c0 -89 14 -119 40 -119c25 0 40 30 40 119zM714 207c0 89 -15 117 -41 117c-25 0 -39 -29 -39 -117c0 -89 14 -119 40 -119c25 0 40 30 40 119z" />
    <glyph glyph-name="Acircumflex" unicode="&#xc2;" horiz-adv-x="580" 
d="M286 821l-40 -53h-119v4l96 137h136l95 -137v-4h-125zM288 492l-50 -250h99zM389 0l-21 98h-161l-21 -98h-179l177 700h214l175 -700h-184z" />
    <glyph glyph-name="Ecircumflex" unicode="&#xca;" horiz-adv-x="524" 
d="M270 821l-40 -53h-119v4l96 137h136l95 -137v-4h-125zM53 0v700h435v-152h-262v-117h222v-155h-222v-123h265v-153h-438z" />
    <glyph glyph-name="Aacute" unicode="&#xc1;" horiz-adv-x="580" 
d="M450 902l-108 -134h-130v5l67 136h171v-7zM288 492l-50 -250h99zM389 0l-21 98h-161l-21 -98h-179l177 700h214l175 -700h-184z" />
    <glyph glyph-name="Edieresis" unicode="&#xcb;" horiz-adv-x="524" 
d="M301 849c0 53 29 81 82 81s82 -27 82 -81c0 -55 -29 -83 -82 -83s-82 28 -82 83zM96 849c0 53 30 81 81 81c54 0 83 -27 83 -81c0 -55 -29 -83 -83 -83c-51 0 -81 28 -81 83zM53 0v700h435v-152h-262v-117h222v-155h-222v-123h265v-153h-438z" />
    <glyph glyph-name="Egrave" unicode="&#xc8;" horiz-adv-x="524" 
d="M220 768l-109 134v7h179l63 -136v-5h-133zM53 0v700h435v-152h-262v-117h222v-155h-222v-123h265v-153h-438z" />
    <glyph glyph-name="Iacute" unicode="&#xcd;" horiz-adv-x="286" 
d="M302 902l-108 -134h-130v5l67 136h171v-7zM53 0v700h180v-700h-180z" />
    <glyph glyph-name="Icircumflex" unicode="&#xce;" horiz-adv-x="286" 
d="M138 821l-40 -53h-119v4l96 137h136l95 -137v-4h-125zM53 0v700h180v-700h-180z" />
    <glyph glyph-name="Idieresis" unicode="&#xcf;" horiz-adv-x="286" 
d="M169 849c0 53 29 81 82 81s82 -27 82 -81c0 -55 -29 -83 -82 -83s-82 28 -82 83zM-36 849c0 53 30 81 81 81c54 0 83 -27 83 -81c0 -55 -29 -83 -83 -83c-51 0 -81 28 -81 83zM53 0v700h180v-700h-180z" />
    <glyph glyph-name="Igrave" unicode="&#xcc;" horiz-adv-x="286" 
d="M88 768l-109 134v7h179l63 -136v-5h-133zM53 0v700h180v-700h-180z" />
    <glyph glyph-name="Oacute" unicode="&#xd3;" horiz-adv-x="617" 
d="M464 902l-108 -134h-130v5l67 136h171v-7zM307 -16c-196 0 -277 125 -277 367s88 365 279 365c198 0 278 -124 278 -367c0 -242 -89 -365 -280 -365zM309 551c-64 0 -96 -53 -96 -205c0 -147 32 -201 96 -201s94 53 94 204c0 147 -30 202 -94 202z" />
    <glyph glyph-name="Ocircumflex" unicode="&#xd4;" horiz-adv-x="617" 
d="M300 821l-40 -53h-119v4l96 137h136l95 -137v-4h-125zM307 -16c-196 0 -277 125 -277 367s88 365 279 365c198 0 278 -124 278 -367c0 -242 -89 -365 -280 -365zM309 551c-64 0 -96 -53 -96 -205c0 -147 32 -201 96 -201s94 53 94 204c0 147 -30 202 -94 202z" />
    <glyph glyph-name="Ograve" unicode="&#xd2;" horiz-adv-x="617" 
d="M250 768l-109 134v7h179l63 -136v-5h-133zM307 -16c-196 0 -277 125 -277 367s88 365 279 365c198 0 278 -124 278 -367c0 -242 -89 -365 -280 -365zM309 551c-64 0 -96 -53 -96 -205c0 -147 32 -201 96 -201s94 53 94 204c0 147 -30 202 -94 202z" />
    <glyph glyph-name="Uacute" unicode="&#xda;" horiz-adv-x="599" 
d="M460 902l-108 -134h-130v5l67 136h171v-7zM376 242v458h180v-449c0 -180 -94 -267 -256 -267c-164 0 -256 89 -256 267v449h180v-458c0 -59 27 -89 76 -89s76 30 76 89z" />
    <glyph glyph-name="Ucircumflex" unicode="&#xdb;" horiz-adv-x="599" 
d="M296 821l-40 -53h-119v4l96 137h136l95 -137v-4h-125zM376 242v458h180v-449c0 -180 -94 -267 -256 -267c-164 0 -256 89 -256 267v449h180v-458c0 -59 27 -89 76 -89s76 30 76 89z" />
    <glyph glyph-name="Ugrave" unicode="&#xd9;" horiz-adv-x="599" 
d="M246 768l-109 134v7h179l63 -136v-5h-133zM376 242v458h180v-449c0 -180 -94 -267 -256 -267c-164 0 -256 89 -256 267v449h180v-458c0 -59 27 -89 76 -89s76 30 76 89z" />
    <glyph glyph-name="dotlessi" unicode="&#x131;" horiz-adv-x="250" 
d="M39 501h173v-501h-173v501z" />
    <glyph glyph-name="circumflex" unicode="&#x2c6;" horiz-adv-x="462" 
d="M230 622l-40 -53h-119v4l96 137h136l95 -137v-4h-125z" />
    <glyph glyph-name="tilde" unicode="&#x2dc;" horiz-adv-x="462" 
d="M298 708h94c6 -101 -44 -133 -88 -133c-49 0 -80 32 -111 32c-17 0 -21 -17 -21 -33h-92c-7 101 43 132 87 132c48 0 80 -30 111 -30c18 0 20 15 20 32z" />
    <glyph glyph-name="macron" unicode="&#xaf;" horiz-adv-x="462" 
d="M344 685v-101h-246v101h246z" />
    <glyph glyph-name="breve" unicode="&#x2d8;" horiz-adv-x="462" 
d="M286 709h97c0 -112 -56 -148 -152 -148c-97 0 -151 36 -151 148h96c0 -45 17 -58 55 -58c39 0 55 13 55 58z" />
    <glyph glyph-name="dotaccent" unicode="&#x2d9;" horiz-adv-x="462" 
d="M144 648c0 56 31 84 87 84c57 0 86 -28 86 -84c0 -53 -29 -82 -86 -82c-56 0 -87 29 -87 82z" />
    <glyph glyph-name="ring" unicode="&#x2da;" horiz-adv-x="462" 
d="M126 659c0 70 45 106 106 106s106 -36 106 -106c0 -71 -45 -108 -106 -108s-106 37 -106 108zM195 659c0 -28 15 -42 37 -42c21 0 37 14 37 42c0 26 -16 41 -37 41c-22 0 -37 -15 -37 -41z" />
    <glyph glyph-name="cedilla" unicode="&#xb8;" horiz-adv-x="462" 
d="M247 -257c-58 0 -115 24 -138 83l68 45c13 -27 33 -42 60 -42c22 0 39 11 39 35c0 21 -15 35 -39 35c-6 0 -12 -1 -17 -2l-23 14l25 89h76l-15 -45h1c45 -6 88 -36 88 -95c0 -80 -57 -117 -125 -117z" />
    <glyph glyph-name="hungarumlaut" unicode="&#x2dd;" horiz-adv-x="462" 
d="M489 705l-107 -136h-115v5l62 136h160v-5zM292 710v-5l-106 -136h-116v5l62 136h160z" />
    <glyph glyph-name="ogonek" unicode="&#x2db;" horiz-adv-x="462" 
d="M258 -238c-64 0 -133 34 -133 141c0 102 78 162 158 152v-55c-50 -5 -67 -42 -67 -79c0 -42 29 -58 55 -58c16 0 32 6 45 17l37 -83c-28 -22 -57 -35 -95 -35z" />
    <glyph glyph-name="caron" unicode="&#x2c7;" horiz-adv-x="462" 
d="M234 657l42 53h119v-3l-96 -138h-137l-93 138v3h125z" />
    <glyph glyph-name="Abreve" unicode="&#x102;" horiz-adv-x="580" 
d="M346 908h97c0 -112 -56 -148 -152 -148c-97 0 -151 36 -151 148h96c0 -45 17 -58 55 -58c39 0 55 13 55 58zM288 492l-50 -250h99zM389 0l-21 98h-161l-21 -98h-179l177 700h214l175 -700h-184z" />
    <glyph glyph-name="Amacron" unicode="&#x100;" horiz-adv-x="580" 
d="M413 884v-101h-246v101h246zM288 492l-50 -250h99zM389 0l-21 98h-161l-21 -98h-179l177 700h214l175 -700h-184z" />
    <glyph glyph-name="Aogonek" unicode="&#x104;" horiz-adv-x="580" 
d="M561 -203c-29 -22 -59 -35 -95 -35c-65 0 -134 34 -134 141c0 53 23 93 54 117l-17 78h-163l-21 -98h-178l177 700h214l175 -700h-82c-50 -5 -67 -42 -67 -79c0 -42 27 -58 53 -58c16 0 32 6 45 17zM288 495l-51 -253h101z" />
    <glyph glyph-name="Cacute" unicode="&#x106;" horiz-adv-x="561" 
d="M466 902l-108 -134h-130v5l67 136h171v-7zM304 -16c-190 0 -274 122 -274 367c0 252 93 365 281 365c119 0 201 -51 236 -207l-151 -47c-16 64 -42 88 -86 88c-61 0 -97 -45 -97 -203c0 -154 36 -202 97 -202c45 0 75 33 90 97l153 -56c-36 -136 -115 -202 -249 -202z
" />
    <glyph glyph-name="Ccaron" unicode="&#x10c;" horiz-adv-x="561" 
d="M311 856l42 53h119v-3l-96 -138h-137l-93 138v3h125zM304 -16c-190 0 -274 122 -274 367c0 252 93 365 281 365c119 0 201 -51 236 -207l-151 -47c-16 64 -42 88 -86 88c-61 0 -97 -45 -97 -203c0 -154 36 -202 97 -202c45 0 75 33 90 97l153 -56
c-36 -136 -115 -202 -249 -202z" />
    <glyph glyph-name="Ccircumflex" unicode="&#x108;" horiz-adv-x="561" 
d="M302 821l-40 -53h-119v4l96 137h136l95 -137v-4h-125zM304 -16c-190 0 -274 122 -274 367c0 252 93 365 281 365c119 0 201 -51 236 -207l-151 -47c-16 64 -42 88 -86 88c-61 0 -97 -45 -97 -203c0 -154 36 -202 97 -202c45 0 75 33 90 97l153 -56
c-36 -136 -115 -202 -249 -202z" />
    <glyph glyph-name="Cdotaccent" unicode="&#x10a;" horiz-adv-x="561" 
d="M218 847c0 56 31 84 87 84c57 0 86 -28 86 -84c0 -53 -29 -82 -86 -82c-56 0 -87 29 -87 82zM304 -16c-190 0 -274 122 -274 367c0 252 93 365 281 365c119 0 201 -51 236 -207l-151 -47c-16 64 -42 88 -86 88c-61 0 -97 -45 -97 -203c0 -154 36 -202 97 -202
c45 0 75 33 90 97l153 -56c-36 -136 -115 -202 -249 -202z" />
    <glyph glyph-name="Dcaron" unicode="&#x10e;" horiz-adv-x="593" 
d="M310 856l42 53h119v-3l-96 -138h-137l-93 138v3h125zM267 0h-214v700h229c190 0 281 -111 281 -344c0 -232 -96 -356 -296 -356zM267 158c71 0 116 51 116 194c0 129 -33 190 -102 190h-48v-384h34z" />
    <glyph glyph-name="Dcroat" unicode="&#x110;" horiz-adv-x="609" 
d="M283 0h-215v272h-46v146h46v282h229c190 0 281 -111 281 -344c0 -232 -96 -356 -295 -356zM248 158h34c71 0 116 51 116 194c0 130 -33 191 -101 191h-49v-125h64v-146h-64v-114z" />
    <glyph glyph-name="Ebreve" unicode="&#x114;" horiz-adv-x="524" 
d="M330 908h97c0 -112 -56 -148 -152 -148c-97 0 -151 36 -151 148h96c0 -45 17 -58 55 -58c39 0 55 13 55 58zM53 0v700h435v-152h-262v-117h222v-155h-222v-123h265v-153h-438z" />
    <glyph glyph-name="Ecaron" unicode="&#x11a;" horiz-adv-x="524" 
d="M279 856l42 53h119v-3l-96 -138h-137l-93 138v3h125zM53 0v700h435v-152h-262v-117h222v-155h-222v-123h265v-153h-438z" />
    <glyph glyph-name="Edotaccent" unicode="&#x116;" horiz-adv-x="524" 
d="M186 847c0 56 31 84 87 84c57 0 86 -28 86 -84c0 -53 -29 -82 -86 -82c-56 0 -87 29 -87 82zM53 0v700h435v-152h-262v-117h222v-155h-222v-123h265v-153h-438z" />
    <glyph glyph-name="Emacron" unicode="&#x112;" horiz-adv-x="524" 
d="M397 884v-101h-246v101h246zM53 0v700h435v-152h-262v-117h222v-155h-222v-123h265v-153h-438z" />
    <glyph glyph-name="Eng" unicode="&#x14a;" horiz-adv-x="625" 
d="M403 -14v39l-186 316l4 -341h-168v700h136l220 -372l-5 372h167v-726c0 -133 -73 -197 -174 -197c-34 0 -79 6 -106 26l29 124c11 -8 24 -11 36 -11c33 0 47 20 47 70z" />
    <glyph glyph-name="Eogonek" unicode="&#x118;" horiz-adv-x="524" 
d="M502 -203c-28 -22 -58 -35 -96 -35c-64 0 -133 34 -133 141c0 39 12 72 32 97h-252v700h435v-152h-262v-117h222v-155h-222v-123h265v-153h-59c-50 -5 -68 -42 -68 -79c0 -42 29 -58 55 -58c15 0 31 6 45 17z" />
    <glyph glyph-name="Gbreve" unicode="&#x11e;" horiz-adv-x="590" 
d="M366 908h97c0 -112 -56 -148 -152 -148c-97 0 -151 36 -151 148h96c0 -45 17 -58 55 -58c39 0 55 13 55 58zM277 -16c-149 0 -247 120 -247 367c0 251 93 364 281 365c121 0 207 -51 238 -195l-155 -50c-16 59 -42 80 -85 80c-64 0 -99 -50 -99 -202
c0 -158 39 -210 105 -210c39 0 73 29 76 98v7h-79v146h239v-390h-117l-13 68c-29 -52 -77 -84 -144 -84z" />
    <glyph glyph-name="Gcircumflex" unicode="&#x11c;" horiz-adv-x="590" 
d="M307 821l-40 -53h-119v4l96 137h136l95 -137v-4h-125zM277 -16c-149 0 -247 120 -247 367c0 251 93 364 281 365c121 0 207 -51 238 -195l-155 -50c-16 59 -42 80 -85 80c-64 0 -99 -50 -99 -202c0 -158 39 -210 105 -210c39 0 73 29 76 98v7h-79v146h239v-390h-117
l-13 68c-29 -52 -77 -84 -144 -84z" />
    <glyph glyph-name="Gcommaaccent" unicode="&#x122;" horiz-adv-x="590" 
d="M277 -16c-149 0 -247 120 -247 367c0 251 93 364 281 365c121 0 207 -51 238 -195l-155 -50c-16 59 -42 80 -85 80c-64 0 -99 -50 -99 -202c0 -158 39 -210 105 -210c39 0 73 29 76 98v7h-79v146h239v-390h-117l-13 68c-29 -52 -77 -84 -144 -84zM384 -155
c0 -104 -60 -179 -136 -196l-33 64c37 13 68 39 77 73c-48 1 -78 28 -78 79c0 56 30 84 85 84c53 0 85 -35 85 -104z" />
    <glyph glyph-name="Gdotaccent" unicode="&#x120;" horiz-adv-x="590" 
d="M222 847c0 56 31 84 87 84c57 0 86 -28 86 -84c0 -53 -29 -82 -86 -82c-56 0 -87 29 -87 82zM277 -16c-149 0 -247 120 -247 367c0 251 93 364 281 365c121 0 207 -51 238 -195l-155 -50c-16 59 -42 80 -85 80c-64 0 -99 -50 -99 -202c0 -158 39 -210 105 -210
c39 0 73 29 76 98v7h-79v146h239v-390h-117l-13 68c-29 -52 -77 -84 -144 -84z" />
    <glyph glyph-name="Hbar" unicode="&#x126;" horiz-adv-x="655" 
d="M248 432h159v75h-159v-75zM407 0v265h-159v-265h-180v507h-46v95h46v98h180v-98h159v98h180v-98h46v-95h-46v-507h-180z" />
    <glyph glyph-name="Hcircumflex" unicode="&#x124;" horiz-adv-x="625" 
d="M309 821l-40 -53h-119v4l96 137h136l95 -137v-4h-125zM393 0v265h-160v-265h-180v700h180v-268h160v268h180v-700h-180z" />
    <glyph glyph-name="Ibreve" unicode="&#x12c;" horiz-adv-x="286" 
d="M198 908h97c0 -112 -56 -148 -152 -148c-97 0 -151 36 -151 148h96c0 -45 17 -58 55 -58c39 0 55 13 55 58zM53 0v700h180v-700h-180z" />
    <glyph glyph-name="Idotaccent" unicode="&#x130;" horiz-adv-x="286" 
d="M54 847c0 56 31 84 87 84c57 0 86 -28 86 -84c0 -53 -29 -82 -86 -82c-56 0 -87 29 -87 82zM53 0v700h180v-700h-180z" />
    <glyph glyph-name="IJ" unicode="&#x132;" horiz-adv-x="742" 
d="M54 0v700h180v-700h-180zM702 253c0 -196 -101 -269 -239 -269c-54 0 -123 16 -171 66l74 131c26 -23 55 -34 82 -34c45 0 74 28 74 106v447h180v-447z" />
    <glyph glyph-name="Imacron" unicode="&#x12a;" horiz-adv-x="286" 
d="M267 884v-101h-246v101h246zM53 0v700h180v-700h-180z" />
    <glyph glyph-name="Iogonek" unicode="&#x12e;" horiz-adv-x="286" 
d="M223 -203c-28 -22 -58 -35 -95 -35c-64 0 -134 34 -134 141c0 56 25 98 59 124v673h180v-700h-80c-50 -5 -67 -42 -67 -79c0 -42 28 -58 54 -58c16 0 32 6 45 17z" />
    <glyph glyph-name="Itilde" unicode="&#x128;" horiz-adv-x="286" 
d="M205 907h94c6 -101 -44 -133 -88 -133c-49 0 -80 32 -111 32c-17 0 -21 -17 -21 -33h-92c-7 101 43 132 87 132c48 0 80 -30 111 -30c18 0 20 15 20 32zM53 0v700h180v-700h-180z" />
    <glyph glyph-name="Jcircumflex" unicode="&#x134;" horiz-adv-x="440" 
d="M303 821l-40 -53h-119v4l96 137h136l95 -137v-4h-125zM403 253c0 -196 -101 -269 -239 -269c-54 0 -123 16 -171 66l74 131c26 -23 55 -34 82 -34c45 0 74 28 74 106v447h180v-447z" />
    <glyph glyph-name="Kcommaaccent" unicode="&#x136;" horiz-adv-x="592" 
d="M234 181v-181h-181v700h181l-2 -270l152 270h206l-195 -286l194 -414h-216l-100 239zM391 -155c0 -104 -60 -179 -136 -196l-33 64c37 13 68 39 77 73c-48 1 -78 28 -78 79c0 56 30 84 85 84c53 0 85 -35 85 -104z" />
    <glyph glyph-name="Lacute" unicode="&#x139;" horiz-adv-x="499" 
d="M304 902l-108 -134h-130v5l67 136h171v-7zM234 163h245v-163h-426v700h181v-537z" />
    <glyph glyph-name="Lcaron" unicode="&#x13d;" horiz-adv-x="506" 
d="M234 163h245v-163h-426v700h181v-537zM420 423h-109l6 277h130z" />
    <glyph glyph-name="Lcommaaccent" unicode="&#x13b;" horiz-adv-x="499" 
d="M234 163h245v-163h-426v700h181v-537zM355 -155c0 -104 -60 -179 -136 -196l-33 64c37 13 68 39 77 73c-48 1 -78 28 -78 79c0 56 30 84 85 84c53 0 85 -35 85 -104z" />
    <glyph glyph-name="Ldot" unicode="&#x13f;" horiz-adv-x="506" 
d="M234 163h245v-163h-426v700h181v-537zM310 359c0 56 31 84 87 84c57 0 86 -28 86 -84c0 -53 -29 -82 -86 -82c-56 0 -87 29 -87 82z" />
    <glyph glyph-name="Nacute" unicode="&#x143;" horiz-adv-x="625" 
d="M472 902l-108 -134h-130v5l67 136h171v-7zM417 0l-200 340l4 -340h-168v700h136l219 -371l-4 371h167v-700h-154z" />
    <glyph glyph-name="Ncaron" unicode="&#x147;" horiz-adv-x="625" 
d="M317 856l42 53h119v-3l-96 -138h-137l-93 138v3h125zM417 0l-200 340l4 -340h-168v700h136l219 -371l-4 371h167v-700h-154z" />
    <glyph glyph-name="Ncommaaccent" unicode="&#x145;" horiz-adv-x="625" 
d="M417 0l-200 340l4 -340h-168v700h136l219 -371l-4 371h167v-700h-154zM402 -155c0 -104 -60 -179 -136 -196l-33 64c37 13 68 39 77 73c-48 1 -78 28 -78 79c0 56 30 84 85 84c53 0 85 -35 85 -104z" />
    <glyph glyph-name="Obreve" unicode="&#x14e;" horiz-adv-x="617" 
d="M359 908h97c0 -112 -56 -148 -152 -148c-97 0 -151 36 -151 148h96c0 -45 17 -58 55 -58c39 0 55 13 55 58zM307 -16c-196 0 -277 125 -277 367s88 365 279 365c198 0 278 -124 278 -367c0 -242 -89 -365 -280 -365zM309 551c-64 0 -96 -53 -96 -205
c0 -147 32 -201 96 -201s94 53 94 204c0 147 -30 202 -94 202z" />
    <glyph glyph-name="Ohungarumlaut" unicode="&#x150;" horiz-adv-x="617" 
d="M558 904l-107 -136h-115v5l62 136h160v-5zM361 909v-5l-106 -136h-116v5l62 136h160zM307 -16c-196 0 -277 125 -277 367s88 365 279 365c198 0 278 -124 278 -367c0 -242 -89 -365 -280 -365zM309 551c-64 0 -96 -53 -96 -205c0 -147 32 -201 96 -201s94 53 94 204
c0 147 -30 202 -94 202z" />
    <glyph glyph-name="Omacron" unicode="&#x14c;" horiz-adv-x="617" 
d="M427 884v-101h-246v101h246zM307 -16c-196 0 -277 125 -277 367s88 365 279 365c198 0 278 -124 278 -367c0 -242 -89 -365 -280 -365zM309 551c-64 0 -96 -53 -96 -205c0 -147 32 -201 96 -201s94 53 94 204c0 147 -30 202 -94 202z" />
    <glyph glyph-name="Racute" unicode="&#x154;" horiz-adv-x="569" 
d="M458 902l-108 -134h-130v5l67 136h171v-7zM295 542h-65v-171h66c42 0 69 29 69 86c0 53 -23 85 -70 85zM230 215v-215h-177v700h280c143 0 209 -99 209 -241c0 -90 -30 -155 -82 -195l84 -264h-192l-61 215h-61z" />
    <glyph glyph-name="Rcaron" unicode="&#x158;" horiz-adv-x="569" 
d="M303 856l42 53h119v-3l-96 -138h-137l-93 138v3h125zM295 542h-65v-171h66c42 0 69 29 69 86c0 53 -23 85 -70 85zM230 215v-215h-177v700h280c143 0 209 -99 209 -241c0 -90 -30 -155 -82 -195l84 -264h-192l-61 215h-61z" />
    <glyph glyph-name="Rcommaaccent" unicode="&#x156;" horiz-adv-x="569" 
d="M295 542h-65v-171h66c42 0 69 29 69 86c0 53 -23 85 -70 85zM230 215v-215h-177v700h280c143 0 209 -99 209 -241c0 -90 -30 -155 -82 -195l84 -264h-192l-61 215h-61zM381 -155c0 -104 -60 -179 -136 -196l-33 64c37 13 68 39 77 73c-48 1 -78 28 -78 79
c0 56 30 84 85 84c53 0 85 -35 85 -104z" />
    <glyph glyph-name="Sacute" unicode="&#x15a;" horiz-adv-x="508" 
d="M410 901l-108 -134h-130v5l67 136h171v-7zM479 544l-148 -61c-14 50 -42 79 -85 79c-36 0 -56 -22 -56 -51s21 -49 78 -72l43 -17c123 -49 175 -116 175 -220c0 -133 -82 -218 -241 -218c-128 0 -215 50 -246 172l149 60c16 -60 50 -86 98 -86c42 0 65 26 65 56
c0 28 -16 48 -63 66l-41 16c-146 57 -186 138 -186 231c0 124 79 217 227 217c133 0 211 -71 231 -172z" />
    <glyph glyph-name="Scedilla" unicode="&#x15e;" horiz-adv-x="508" 
d="M247 -258c-57 0 -115 23 -138 83l68 44c14 -26 34 -41 61 -41c21 0 39 11 39 35c0 20 -15 35 -40 35c-6 0 -12 -1 -16 -3l-24 14l22 76c-114 7 -190 56 -220 181l149 50c16 -60 50 -86 98 -86c42 0 65 26 65 56c0 28 -16 47 -63 65l-41 16c-146 57 -186 139 -186 232
c0 124 79 217 227 217c133 0 209 -71 231 -182l-148 -51c-14 50 -42 79 -85 79c-36 0 -56 -22 -56 -51s21 -48 78 -71l43 -17c123 -48 175 -117 175 -221c0 -119 -65 -198 -191 -215l-11 -34c45 -5 88 -36 88 -94c0 -81 -57 -117 -125 -117z" />
    <glyph glyph-name="Scircumflex" unicode="&#x15c;" horiz-adv-x="508" 
d="M247 820l-40 -53h-119v4l96 137h136l95 -137v-4h-125zM479 544l-148 -61c-14 50 -42 79 -85 79c-36 0 -56 -22 -56 -51s21 -49 78 -72l43 -17c123 -49 175 -116 175 -220c0 -133 -82 -218 -241 -218c-128 0 -215 50 -246 172l149 60c16 -60 50 -86 98 -86
c42 0 65 26 65 56c0 28 -16 48 -63 66l-41 16c-146 57 -186 138 -186 231c0 124 79 217 227 217c133 0 211 -71 231 -172z" />
    <glyph glyph-name="Scommaaccent" unicode="&#x218;" horiz-adv-x="508" 
d="M479 544l-148 -61c-14 50 -42 79 -85 79c-36 0 -56 -22 -56 -51s21 -49 78 -72l43 -17c123 -49 175 -116 175 -220c0 -133 -82 -218 -241 -218c-128 0 -215 50 -246 172l149 60c16 -60 50 -86 98 -86c42 0 65 26 65 56c0 28 -16 48 -63 66l-41 16
c-146 57 -186 138 -186 231c0 124 79 217 227 217c133 0 211 -71 231 -172zM340 -156c0 -104 -60 -179 -136 -196l-33 64c37 13 68 39 77 73c-48 1 -78 28 -78 79c0 56 30 84 85 84c53 0 85 -35 85 -104z" />
    <glyph glyph-name="Tbar" unicode="&#x166;" horiz-adv-x="514" 
d="M14 700h487v-167h-153v-131h114v-138h-114v-264h-181v264h-113v138h113v131h-153v167z" />
    <glyph glyph-name="Tcaron" unicode="&#x164;" horiz-adv-x="513" 
d="M261 856l42 53h119v-3l-96 -138h-137l-93 138v3h125zM14 700h486v-167h-154v-533h-180v533h-152v167z" />
    <glyph glyph-name="Tcommaaccent" unicode="&#x162;" horiz-adv-x="513" 
d="M14 700h486v-167h-154v-533h-180v533h-152v167zM340 -155c0 -104 -60 -179 -136 -196l-33 64c37 13 68 39 77 73c-48 1 -78 28 -78 79c0 56 30 84 85 84c53 0 85 -35 85 -104z" />
    <glyph glyph-name="Ubreve" unicode="&#x16c;" horiz-adv-x="599" 
d="M356 908h97c0 -112 -56 -148 -152 -148c-97 0 -151 36 -151 148h96c0 -45 17 -58 55 -58c39 0 55 13 55 58zM376 242v458h180v-449c0 -180 -94 -267 -256 -267c-164 0 -256 89 -256 267v449h180v-458c0 -59 27 -89 76 -89s76 30 76 89z" />
    <glyph glyph-name="Uhungarumlaut" unicode="&#x170;" horiz-adv-x="599" 
d="M554 904l-107 -136h-115v5l62 136h160v-5zM357 909v-5l-106 -136h-116v5l62 136h160zM376 242v458h180v-449c0 -180 -94 -267 -256 -267c-164 0 -256 89 -256 267v449h180v-458c0 -59 27 -89 76 -89s76 30 76 89z" />
    <glyph glyph-name="Umacron" unicode="&#x16a;" horiz-adv-x="599" 
d="M423 884v-101h-246v101h246zM376 242v458h180v-449c0 -180 -94 -267 -256 -267c-164 0 -256 89 -256 267v449h180v-458c0 -59 27 -89 76 -89s76 30 76 89z" />
    <glyph glyph-name="Uogonek" unicode="&#x172;" horiz-adv-x="599" 
d="M382 -238c-64 0 -133 34 -133 141c0 33 9 60 21 82c-147 10 -226 99 -226 264v451h180v-458c0 -59 27 -89 76 -89c50 0 75 30 75 89v458h180v-451c0 -150 -64 -234 -178 -257c-27 -14 -37 -42 -37 -71c0 -42 29 -58 55 -58c15 0 31 6 45 17l37 -83
c-28 -22 -57 -35 -95 -35z" />
    <glyph glyph-name="Uring" unicode="&#x16e;" horiz-adv-x="599" 
d="M194 858c0 70 45 106 106 106s106 -36 106 -106c0 -71 -45 -108 -106 -108s-106 37 -106 108zM263 858c0 -28 15 -42 37 -42c21 0 37 14 37 42c0 26 -16 41 -37 41c-22 0 -37 -15 -37 -41zM376 242v458h180v-449c0 -180 -94 -267 -256 -267c-164 0 -256 89 -256 267v449
h180v-458c0 -59 27 -89 76 -89s76 30 76 89z" />
    <glyph glyph-name="Utilde" unicode="&#x168;" horiz-adv-x="599" 
d="M363 907h94c6 -101 -44 -133 -88 -133c-49 0 -80 32 -111 32c-17 0 -21 -17 -21 -33h-92c-7 101 43 132 87 132c48 0 80 -30 111 -30c18 0 20 15 20 32zM376 242v458h180v-449c0 -180 -94 -267 -256 -267c-164 0 -256 89 -256 267v449h180v-458c0 -59 27 -89 76 -89
s76 30 76 89z" />
    <glyph glyph-name="Wacute" unicode="&#x1e82;" horiz-adv-x="787" 
d="M553 902l-108 -134h-130v5l67 136h171v-7zM314 700h162l67 -421l63 421h174l-146 -700h-181l-61 413l-61 -413h-178l-147 700h181l62 -419z" />
    <glyph glyph-name="Wdieresis" unicode="&#x1e84;" horiz-adv-x="787" 
d="M420 849c0 53 29 81 82 81s82 -27 82 -81c0 -55 -29 -83 -82 -83s-82 28 -82 83zM215 849c0 53 30 81 81 81c54 0 83 -27 83 -81c0 -55 -29 -83 -83 -83c-51 0 -81 28 -81 83zM314 700h162l67 -421l63 421h174l-146 -700h-181l-61 413l-61 -413h-178l-147 700h181
l62 -419z" />
    <glyph glyph-name="Wgrave" unicode="&#x1e80;" horiz-adv-x="787" 
d="M339 768l-109 134v7h179l63 -136v-5h-133zM314 700h162l67 -421l63 421h174l-146 -700h-181l-61 413l-61 -413h-178l-147 700h181l62 -419z" />
    <glyph glyph-name="Wcircumflex" unicode="&#x174;" horiz-adv-x="787" 
d="M389 821l-40 -53h-119v4l96 137h136l95 -137v-4h-125zM314 700h162l67 -421l63 421h174l-146 -700h-181l-61 413l-61 -413h-178l-147 700h181l62 -419z" />
    <glyph glyph-name="Ycircumflex" unicode="&#x176;" horiz-adv-x="580" 
d="M295 821l-40 -53h-119v4l96 137h136l95 -137v-4h-125zM200 252l-194 448h200l90 -270l89 270h189l-194 -453v-247h-180v252z" />
    <glyph glyph-name="Zacute" unicode="&#x179;" horiz-adv-x="502" 
d="M409 902l-108 -134h-130v5l67 136h171v-7zM18 0v118l244 427l-238 -4v159h448v-116l-239 -429l247 4v-159h-462z" />
    <glyph glyph-name="Zdotaccent" unicode="&#x17b;" horiz-adv-x="502" 
d="M161 847c0 56 31 84 87 84c57 0 86 -28 86 -84c0 -53 -29 -82 -86 -82c-56 0 -87 29 -87 82zM18 0v118l244 427l-238 -4v159h448v-116l-239 -429l247 4v-159h-462z" />
    <glyph glyph-name="abreve" unicode="&#x103;" horiz-adv-x="460" 
d="M277 709h97c0 -112 -56 -148 -152 -148c-97 0 -151 36 -151 148h96c0 -45 17 -58 55 -58c39 0 55 13 55 58zM206 101c31 0 50 26 50 74v29h-17c-43 0 -71 -25 -71 -61c0 -26 14 -42 38 -42zM279 0l-8 66c-21 -46 -66 -80 -119 -80c-80 0 -131 52 -131 144
c0 115 97 170 198 170h37v2c-3 59 -37 73 -66 73c-34 0 -61 -16 -77 -49l-97 82c39 73 107 108 203 108c117 0 204 -56 204 -218v-298h-144z" />
    <glyph glyph-name="amacron" unicode="&#x101;" horiz-adv-x="460" 
d="M345 685v-101h-246v101h246zM206 101c31 0 50 26 50 74v29h-17c-43 0 -71 -25 -71 -61c0 -26 14 -42 38 -42zM279 0l-8 66c-21 -46 -66 -80 -119 -80c-80 0 -131 52 -131 144c0 115 97 170 198 170h37v2c-3 59 -37 73 -66 73c-34 0 -61 -16 -77 -49l-97 82
c39 73 107 108 203 108c117 0 204 -56 204 -218v-298h-144z" />
    <glyph glyph-name="aogonek" unicode="&#x105;" horiz-adv-x="460" 
d="M458 -203c-27 -22 -57 -34 -95 -34c-64 0 -132 34 -132 141c0 48 18 87 46 113l-6 49c-21 -46 -66 -80 -119 -80c-80 0 -131 52 -131 144c0 115 97 170 198 170h37v2c-3 59 -37 73 -66 73c-34 0 -61 -16 -77 -49l-97 82c39 73 107 108 203 108c117 0 204 -56 204 -218
v-298h-38c-48 -6 -63 -42 -63 -78c0 -43 28 -58 54 -58c16 0 32 6 45 16zM206 101c31 0 50 26 50 74v29h-17c-43 0 -71 -25 -71 -61c0 -26 14 -42 38 -42z" />
    <glyph glyph-name="cacute" unicode="&#x107;" horiz-adv-x="434" 
d="M395 703l-108 -134h-130v5l67 136h171v-7zM237 -15c-128 0 -213 77 -213 266c0 184 82 265 220 265c94 0 157 -49 181 -153l-132 -53c-11 41 -28 55 -51 55c-36 0 -58 -25 -58 -115c0 -76 13 -120 58 -120c28 0 45 18 57 58l126 -55c-28 -98 -89 -148 -188 -148z" />
    <glyph glyph-name="ccaron" unicode="&#x10d;" horiz-adv-x="434" 
d="M240 657l42 53h119v-3l-96 -138h-137l-93 138v3h125zM237 -15c-128 0 -213 77 -213 266c0 184 82 265 220 265c94 0 157 -49 181 -153l-132 -53c-11 41 -28 55 -51 55c-36 0 -58 -25 -58 -115c0 -76 13 -120 58 -120c28 0 45 18 57 58l126 -55
c-28 -98 -89 -148 -188 -148z" />
    <glyph glyph-name="ccircumflex" unicode="&#x109;" horiz-adv-x="434" 
d="M232 622l-40 -53h-119v4l96 137h136l95 -137v-4h-125zM237 -15c-128 0 -213 77 -213 266c0 184 82 265 220 265c94 0 157 -49 181 -153l-132 -53c-11 41 -28 55 -51 55c-36 0 -58 -25 -58 -115c0 -76 13 -120 58 -120c28 0 45 18 57 58l126 -55
c-28 -98 -89 -148 -188 -148z" />
    <glyph glyph-name="cdotaccent" unicode="&#x10b;" horiz-adv-x="434" 
d="M147 648c0 56 31 84 87 84c57 0 86 -28 86 -84c0 -53 -29 -82 -86 -82c-56 0 -87 29 -87 82zM237 -15c-128 0 -213 77 -213 266c0 184 82 265 220 265c94 0 157 -49 181 -153l-132 -53c-11 41 -28 55 -51 55c-36 0 -58 -25 -58 -115c0 -76 13 -120 58 -120
c28 0 45 18 57 58l126 -55c-28 -98 -89 -148 -188 -148z" />
    <glyph glyph-name="dcaron" unicode="&#x10f;" horiz-adv-x="639" 
d="M620 423h-109l6 277h130zM294 247c0 93 -19 131 -53 131c-33 0 -52 -40 -52 -128c0 -84 16 -125 53 -125c32 0 52 40 52 122zM326 0l-12 72c-30 -56 -65 -87 -127 -87c-94 0 -163 87 -163 257c0 182 72 274 170 274c43 0 73 -23 99 -61v245h172v-700h-139z" />
    <glyph glyph-name="dcroat" unicode="&#x111;" horiz-adv-x="510" 
d="M294 247c0 86 -19 122 -52 122c-31 0 -53 -35 -53 -120c0 -82 17 -124 54 -124c31 0 51 41 51 122zM314 72c-28 -55 -65 -87 -127 -87c-94 0 -163 86 -163 254c0 178 72 268 170 268c43 0 73 -23 98 -60v94h-84v95h84v64h173v-64h37v-95h-37v-541h-139z" />
    <glyph glyph-name="dotlessj" unicode="&#x237;" horiz-adv-x="250" 
d="M39 -21v522h173v-527c0 -133 -74 -197 -176 -197c-55 0 -93 13 -123 32l42 119c10 -8 23 -12 37 -12c29 0 47 17 47 63z" />
    <glyph glyph-name="ebreve" unicode="&#x115;" horiz-adv-x="453" 
d="M286 709h97c0 -112 -56 -148 -152 -148c-97 0 -151 36 -151 148h96c0 -45 17 -58 55 -58c39 0 55 13 55 58zM238 -15c-125 0 -214 86 -214 263c0 166 78 268 212 268c140 0 196 -115 196 -259c0 -19 -1 -39 -3 -58h-244c6 -58 31 -82 71 -82c29 0 50 16 59 49l115 -54
c-33 -80 -90 -127 -192 -127zM236 380c-28 0 -52 -26 -53 -80h98c1 49 -16 80 -45 80z" />
    <glyph glyph-name="ecaron" unicode="&#x11b;" horiz-adv-x="453" 
d="M235 657l42 53h119v-3l-96 -138h-137l-93 138v3h125zM238 -15c-125 0 -214 86 -214 263c0 166 78 268 212 268c140 0 196 -115 196 -259c0 -19 -1 -39 -3 -58h-244c6 -58 31 -82 71 -82c29 0 50 16 59 49l115 -54c-33 -80 -90 -127 -192 -127zM236 380
c-28 0 -52 -26 -53 -80h98c1 49 -16 80 -45 80z" />
    <glyph glyph-name="edotaccent" unicode="&#x117;" horiz-adv-x="453" 
d="M142 648c0 56 31 84 87 84c57 0 86 -28 86 -84c0 -53 -29 -82 -86 -82c-56 0 -87 29 -87 82zM238 -15c-125 0 -214 86 -214 263c0 166 78 268 212 268c140 0 196 -115 196 -259c0 -19 -1 -39 -3 -58h-244c6 -58 31 -82 71 -82c29 0 50 16 59 49l115 -54
c-33 -80 -90 -127 -192 -127zM236 380c-28 0 -52 -26 -53 -80h98c1 49 -16 80 -45 80z" />
    <glyph glyph-name="emacron" unicode="&#x113;" horiz-adv-x="453" 
d="M355 685v-101h-246v101h246zM238 -15c-125 0 -214 86 -214 263c0 166 78 268 212 268c140 0 196 -115 196 -259c0 -19 -1 -39 -3 -58h-244c6 -58 31 -82 71 -82c29 0 50 16 59 49l115 -54c-33 -80 -90 -127 -192 -127zM236 380c-28 0 -52 -26 -53 -80h98
c1 49 -16 80 -45 80z" />
    <glyph glyph-name="eng" unicode="&#x14b;" horiz-adv-x="511" 
d="M303 -14v287c0 60 -14 77 -40 77c-30 0 -52 -31 -51 -102v-248h-173v501h141l13 -88c29 67 77 103 139 103c103 0 143 -84 143 -196v-348c0 -131 -74 -195 -175 -195c-33 0 -79 7 -109 27l32 123c12 -8 25 -11 36 -11c33 0 44 20 44 70z" />
    <glyph glyph-name="eogonek" unicode="&#x119;" horiz-adv-x="453" 
d="M301 -238c-64 0 -133 34 -133 141c0 34 9 63 23 87c-100 19 -167 104 -167 258c0 166 78 268 212 268c140 0 196 -115 196 -259c0 -19 -1 -39 -3 -58h-244c6 -58 31 -82 71 -82c29 0 50 16 59 49l115 -54c-27 -64 -68 -108 -137 -122c-25 -14 -34 -42 -34 -69
c0 -42 28 -58 54 -58c16 0 32 6 46 17l37 -83c-28 -22 -58 -35 -95 -35zM236 380c-28 0 -52 -26 -53 -80h98c1 49 -16 80 -45 80z" />
    <glyph glyph-name="gbreve" unicode="&#x11f;" horiz-adv-x="502" 
d="M300 709h97c0 -112 -56 -148 -152 -148c-97 0 -151 36 -151 148h96c0 -45 17 -58 55 -58c39 0 55 13 55 58zM294 261c0 72 -21 115 -54 115s-52 -38 -52 -116c0 -81 19 -119 51 -119c36 0 55 45 55 120zM224 -223c-110 0 -177 42 -211 125l120 69c14 -38 40 -60 78 -60
c56 0 81 36 81 117v52c-23 -45 -60 -72 -108 -72c-91 0 -160 78 -160 249c0 174 74 259 179 259c48 0 88 -27 114 -78l9 63h138v-448c0 -184 -90 -276 -240 -276z" />
    <glyph glyph-name="gcircumflex" unicode="&#x11d;" horiz-adv-x="502" 
d="M240 622l-40 -53h-119v4l96 137h136l95 -137v-4h-125zM294 261c0 72 -21 115 -54 115s-52 -38 -52 -116c0 -81 19 -119 51 -119c36 0 55 45 55 120zM224 -223c-110 0 -177 42 -211 125l120 69c14 -38 40 -60 78 -60c56 0 81 36 81 117v52c-23 -45 -60 -72 -108 -72
c-91 0 -160 78 -160 249c0 174 74 259 179 259c48 0 88 -27 114 -78l9 63h138v-448c0 -184 -90 -276 -240 -276z" />
    <glyph glyph-name="gcommaaccent" unicode="&#x123;" horiz-adv-x="499" 
d="M146 663c0 104 60 179 136 196l33 -64c-37 -13 -68 -39 -77 -73c48 -1 78 -28 78 -79c0 -56 -30 -84 -85 -84c-53 0 -85 35 -85 104zM294 261c0 72 -21 115 -54 115s-52 -38 -52 -116c0 -81 19 -119 51 -119c36 0 55 45 55 120zM224 -223c-110 0 -177 42 -211 125l120 69
c14 -38 40 -60 78 -60c56 0 81 36 81 117v52c-23 -45 -60 -72 -108 -72c-91 0 -160 78 -160 249c0 174 74 259 179 259c48 0 88 -27 114 -78l9 63h138v-448c0 -184 -90 -276 -240 -276z" />
    <glyph glyph-name="gdotaccent" unicode="&#x121;" horiz-adv-x="502" 
d="M157 648c0 56 31 84 87 84c57 0 86 -28 86 -84c0 -53 -29 -82 -86 -82c-56 0 -87 29 -87 82zM294 261c0 72 -21 115 -54 115s-52 -38 -52 -116c0 -81 19 -119 51 -119c36 0 55 45 55 120zM224 -223c-110 0 -177 42 -211 125l120 69c14 -38 40 -60 78 -60
c56 0 81 36 81 117v52c-23 -45 -60 -72 -108 -72c-91 0 -160 78 -160 249c0 174 74 259 179 259c48 0 88 -27 114 -78l9 63h138v-448c0 -184 -90 -276 -240 -276z" />
    <glyph glyph-name="hbar" unicode="&#x127;" horiz-adv-x="519" 
d="M220 240v-240h-173v541h-38v95h38v64h173v-64h81v-95h-81v-136c27 67 71 104 127 104c95 0 136 -85 136 -200v-309h-173v262c0 62 -14 80 -39 80c-30 0 -52 -30 -51 -102z" />
    <glyph glyph-name="hcircumflex" unicode="&#x125;" horiz-adv-x="511" 
d="M123 821l-40 -53h-119v4l96 137h136l95 -137v-4h-125zM302 276c0 57 -13 74 -39 74c-30 0 -51 -30 -51 -99v-251h-173v700h173v-288c27 67 71 104 127 104c95 0 136 -84 136 -196v-320h-173v276z" />
    <glyph glyph-name="ibreve" unicode="&#x12d;" horiz-adv-x="250" 
d="M180 709h97c0 -112 -56 -148 -152 -148c-97 0 -151 36 -151 148h96c0 -45 17 -58 55 -58c39 0 55 13 55 58zM39 501h173v-501h-173v501z" />
    <glyph glyph-name="idotaccent" unicode="&#xe785;" horiz-adv-x="250" 
d="M32 649c0 62 34 94 93 94c60 0 93 -32 93 -94c0 -60 -33 -93 -93 -93c-59 0 -93 33 -93 93zM39 501h173v-501h-173v501z" />
    <glyph glyph-name="ij" unicode="&#x133;" horiz-adv-x="493" 
d="M368 556c-59 0 -93 33 -93 93c0 62 34 94 93 94c60 0 93 -32 93 -94c0 -60 -33 -93 -93 -93zM32 649c0 62 34 94 93 94c60 0 93 -32 93 -94c0 -60 -33 -93 -93 -93c-59 0 -93 33 -93 93zM39 501h173v-501h-173v501zM282 -21v522h173v-527c0 -133 -74 -197 -176 -197
c-55 0 -92 13 -123 32l42 119c10 -8 23 -12 37 -12c29 0 47 17 47 63z" />
    <glyph glyph-name="imacron" unicode="&#x12b;" horiz-adv-x="249" 
d="M248 685v-101h-246v101h246zM39 501h173v-501h-173v501z" />
    <glyph glyph-name="iogonek" unicode="&#x12f;" horiz-adv-x="249" 
d="M32 649c0 62 34 94 93 94c60 0 93 -32 93 -94c0 -60 -33 -93 -93 -93c-59 0 -93 33 -93 93zM196 -203c-28 -22 -58 -35 -95 -35c-65 0 -133 34 -133 141c0 63 29 109 71 133v465h173v-501h-85c-50 -5 -68 -42 -68 -79c0 -42 28 -58 54 -58c16 0 32 6 45 17z" />
    <glyph glyph-name="itilde" unicode="&#x129;" horiz-adv-x="250" 
d="M187 708h94c6 -101 -44 -133 -88 -133c-49 0 -80 32 -111 32c-17 0 -21 -17 -21 -33h-92c-7 101 43 132 87 132c48 0 80 -30 111 -30c18 0 20 15 20 32zM39 501h173v-501h-173v501z" />
    <glyph glyph-name="jcircumflex" unicode="&#x135;" horiz-adv-x="250" 
d="M121 622l-40 -53h-119v4l96 137h136l95 -137v-4h-125zM39 -21v522h173v-527c0 -133 -74 -197 -176 -197c-55 0 -93 13 -123 32l42 119c10 -8 23 -12 37 -12c29 0 47 17 47 63z" />
    <glyph glyph-name="kcommaaccent" unicode="&#x137;" horiz-adv-x="497" 
d="M209 99v-99h-170v700h173l-7 -404l104 205h180l-140 -214l143 -287h-187l-63 153zM347 -155c0 -104 -60 -179 -136 -196l-33 64c37 13 68 39 77 73c-48 1 -78 28 -78 79c0 56 30 84 85 84c53 0 85 -35 85 -104z" />
    <glyph glyph-name="kgreenlandic" unicode="&#x138;" horiz-adv-x="497" 
d="M209 99v-99h-170v501h170l-4 -207l104 207h180l-138 -217l141 -284h-187l-64 152z" />
    <glyph glyph-name="lacute" unicode="&#x13a;" horiz-adv-x="250" 
d="M284 902l-108 -134h-130v5l67 136h171v-7zM212 700v-700h-173v700h173z" />
    <glyph glyph-name="lcaron" unicode="&#x13e;" horiz-adv-x="390" 
d="M212 700v-700h-173v700h173zM365 423h-109l6 277h130z" />
    <glyph glyph-name="lcommaaccent" unicode="&#x13c;" horiz-adv-x="250" 
d="M212 700v-700h-173v700h173zM214 -155c0 -104 -60 -179 -136 -196l-33 64c37 13 68 39 77 73c-48 1 -78 28 -78 79c0 56 30 84 85 84c53 0 85 -35 85 -104z" />
    <glyph glyph-name="ldot" unicode="&#x140;" horiz-adv-x="398" 
d="M212 700v-700h-173v700h173zM234 303c0 56 31 84 87 84c57 0 86 -28 86 -84c0 -53 -29 -82 -86 -82c-56 0 -87 29 -87 82z" />
    <glyph glyph-name="nacute" unicode="&#x144;" horiz-adv-x="511" 
d="M435 703l-108 -134h-130v5l67 136h171v-7zM39 501h141l13 -89c29 68 77 104 139 104c103 0 143 -84 143 -196v-320h-173v277c0 57 -14 73 -39 73c-30 0 -51 -30 -51 -99v-251h-173v501z" />
    <glyph glyph-name="ncaron" unicode="&#x148;" horiz-adv-x="511" 
d="M280 657l42 53h119v-3l-96 -138h-137l-93 138v3h125zM39 501h141l13 -89c29 68 77 104 139 104c103 0 143 -84 143 -196v-320h-173v277c0 57 -14 73 -39 73c-30 0 -51 -30 -51 -99v-251h-173v501z" />
    <glyph glyph-name="ncommaaccent" unicode="&#x146;" horiz-adv-x="511" 
d="M39 501h141l13 -89c29 68 77 104 139 104c103 0 143 -84 143 -196v-320h-173v277c0 57 -14 73 -39 73c-30 0 -51 -30 -51 -99v-251h-173v501zM346 -155c0 -104 -60 -179 -136 -196l-33 64c37 13 68 39 77 73c-48 1 -78 28 -78 79c0 56 30 84 85 84c53 0 85 -35 85 -104z
" />
    <glyph glyph-name="obreve" unicode="&#x14f;" horiz-adv-x="484" 
d="M297 709h97c0 -112 -56 -148 -152 -148c-97 0 -151 36 -151 148h96c0 -45 17 -58 55 -58c39 0 55 13 55 58zM24 252c0 180 83 264 218 264c145 0 218 -83 218 -264c0 -176 -76 -267 -218 -267c-146 0 -218 89 -218 267zM298 250c0 84 -15 122 -57 122
c-41 0 -56 -38 -56 -122c0 -85 17 -124 56 -124s57 39 57 124z" />
    <glyph glyph-name="ohungarumlaut" unicode="&#x151;" horiz-adv-x="484" 
d="M495 705l-107 -136h-115v5l62 136h160v-5zM298 710v-5l-106 -136h-116v5l62 136h160zM24 252c0 180 83 264 218 264c145 0 218 -83 218 -264c0 -176 -76 -267 -218 -267c-146 0 -218 89 -218 267zM298 250c0 84 -15 122 -57 122c-41 0 -56 -38 -56 -122
c0 -85 17 -124 56 -124s57 39 57 124z" />
    <glyph glyph-name="omacron" unicode="&#x14d;" horiz-adv-x="484" 
d="M366 685v-101h-246v101h246zM24 252c0 180 83 264 218 264c145 0 218 -83 218 -264c0 -176 -76 -267 -218 -267c-146 0 -218 89 -218 267zM298 250c0 84 -15 122 -57 122c-41 0 -56 -38 -56 -122c0 -85 17 -124 56 -124s57 39 57 124z" />
    <glyph glyph-name="racute" unicode="&#x155;" horiz-adv-x="343" 
d="M361 703l-108 -134h-130v5l67 136h171v-7zM39 0v501h141l13 -96c26 71 74 113 133 113l2 -181c-80 6 -117 -58 -116 -155v-182h-173z" />
    <glyph glyph-name="rcaron" unicode="&#x159;" horiz-adv-x="343" 
d="M206 657l42 53h119v-3l-96 -138h-137l-93 138v3h125zM39 0v501h141l13 -96c26 71 74 113 133 113l2 -181c-80 6 -117 -58 -116 -155v-182h-173z" />
    <glyph glyph-name="rcommaaccent" unicode="&#x157;" horiz-adv-x="343" 
d="M39 0v501h141l13 -96c26 71 74 113 133 113l2 -181c-80 6 -117 -58 -116 -155v-182h-173zM215 -155c0 -104 -60 -179 -136 -196l-33 64c37 13 68 39 77 73c-48 1 -78 28 -78 79c0 56 30 84 85 84c53 0 85 -35 85 -104z" />
    <glyph glyph-name="sacute" unicode="&#x15b;" horiz-adv-x="402" 
d="M355 703l-108 -134h-130v5l67 136h171v-7zM190 102c30 0 45 13 45 31c0 19 -14 29 -50 42l-25 9c-81 29 -139 78 -139 169c0 96 70 163 183 163c103 0 160 -49 185 -126l-114 -51c-9 33 -38 52 -69 52c-24 0 -42 -9 -42 -30c0 -15 11 -25 49 -39l37 -14
c90 -34 136 -79 136 -161c0 -92 -64 -161 -192 -161c-106 0 -169 41 -192 120l110 52c14 -38 39 -56 78 -56z" />
    <glyph glyph-name="scedilla" unicode="&#x15f;" horiz-adv-x="400" 
d="M186 -257c-58 0 -116 24 -138 83l68 45c13 -27 33 -42 60 -42c22 0 40 11 40 35c0 21 -15 35 -40 35c-6 0 -12 -1 -16 -2l-24 14l21 77c-82 8 -134 49 -155 118l110 52c13 -37 38 -55 76 -55c30 0 46 12 46 30c0 19 -13 29 -50 42l-26 9c-76 28 -138 77 -138 172
c0 89 63 160 182 160c100 0 159 -49 185 -126l-114 -52c-9 34 -37 52 -69 52c-23 0 -42 -9 -42 -29c0 -15 10 -26 48 -40l38 -13c86 -31 136 -77 136 -162c0 -76 -46 -143 -151 -157l-11 -34h1c45 -6 88 -36 88 -95c0 -80 -57 -117 -125 -117z" />
    <glyph glyph-name="scircumflex" unicode="&#x15d;" horiz-adv-x="402" 
d="M191 622l-40 -53h-119v4l96 137h136l95 -137v-4h-125zM190 102c30 0 45 13 45 31c0 19 -14 29 -50 42l-25 9c-81 29 -139 78 -139 169c0 96 70 163 183 163c103 0 160 -49 185 -126l-114 -51c-9 33 -38 52 -69 52c-24 0 -42 -9 -42 -30c0 -15 11 -25 49 -39l37 -14
c90 -34 136 -79 136 -161c0 -92 -64 -161 -192 -161c-106 0 -169 41 -192 120l110 52c14 -38 39 -56 78 -56z" />
    <glyph glyph-name="scommaaccent" unicode="&#x219;" horiz-adv-x="402" 
d="M190 102c30 0 45 13 45 31c0 19 -14 29 -50 42l-25 9c-81 29 -139 78 -139 169c0 96 70 163 183 163c103 0 160 -49 185 -126l-114 -51c-9 33 -38 52 -69 52c-24 0 -42 -9 -42 -30c0 -15 11 -25 49 -39l37 -14c90 -34 136 -79 136 -161c0 -92 -64 -161 -192 -161
c-106 0 -169 41 -192 120l110 52c14 -38 39 -56 78 -56zM279 -155c0 -104 -60 -179 -136 -196l-33 64c37 13 68 39 77 73c-48 1 -78 28 -78 79c0 56 30 84 85 84c53 0 85 -35 85 -104z" />
    <glyph glyph-name="tbar" unicode="&#x167;" horiz-adv-x="350" 
d="M344 21c-18 -21 -68 -36 -118 -36c-87 0 -166 37 -166 176v57h-50v94h50v51h-50v138h50v141h169v-141h97v-138h-97v-51h96v-94h-96v-39c0 -42 21 -59 46 -59c14 0 31 6 43 17z" />
    <glyph glyph-name="tcaron" unicode="&#x165;" horiz-adv-x="369" 
d="M354 552h-94l4 199h116zM344 21c-27 -19 -69 -35 -120 -35c-95 0 -164 53 -164 167v211h-52v138h52v141h169v-141h97v-138h-97v-186c0 -40 20 -57 45 -57c14 0 31 5 43 15z" />
    <glyph glyph-name="tcommaaccent" unicode="&#x163;" horiz-adv-x="347" 
d="M344 20c-27 -19 -69 -35 -120 -35c-95 0 -164 53 -164 167v211h-52v138h52v141h169v-141h97v-138h-97v-186c0 -40 20 -57 45 -57c14 0 31 5 43 15zM297 -155c0 -104 -60 -179 -136 -196l-33 64c37 13 68 39 77 73c-48 1 -78 28 -78 79c0 56 30 84 85 84
c53 0 85 -35 85 -104z" />
    <glyph glyph-name="ubreve" unicode="&#x16d;" horiz-adv-x="508" 
d="M307 709h97c0 -112 -56 -148 -152 -148c-97 0 -151 36 -151 148h96c0 -45 17 -58 55 -58c39 0 55 13 55 58zM469 0h-139l-13 83c-28 -63 -75 -98 -133 -98c-107 0 -149 83 -149 187v329h175v-287c0 -54 12 -71 39 -71s47 26 47 95v263h173v-501z" />
    <glyph glyph-name="uhungarumlaut" unicode="&#x171;" horiz-adv-x="508" 
d="M505 705l-107 -136h-115v5l62 136h160v-5zM308 710v-5l-106 -136h-116v5l62 136h160zM469 0h-139l-13 83c-28 -63 -75 -98 -133 -98c-107 0 -149 83 -149 187v329h175v-287c0 -54 12 -71 39 -71s47 26 47 95v263h173v-501z" />
    <glyph glyph-name="umacron" unicode="&#x16b;" horiz-adv-x="508" 
d="M375 685v-101h-246v101h246zM469 0h-139l-13 83c-28 -63 -75 -98 -133 -98c-107 0 -149 83 -149 187v329h175v-287c0 -54 12 -71 39 -71s47 26 47 95v263h173v-501z" />
    <glyph glyph-name="uogonek" unicode="&#x173;" horiz-adv-x="508" 
d="M503 -203c-28 -22 -57 -35 -95 -35c-64 0 -133 34 -133 141c0 52 21 92 51 118l-9 62c-28 -63 -75 -98 -133 -98c-107 0 -149 83 -149 187v329h175v-287c0 -54 12 -71 39 -71s47 26 47 95v263h173v-501h-36c-50 -5 -67 -42 -67 -79c0 -42 29 -58 55 -58c15 0 31 6 45 17z
" />
    <glyph glyph-name="uring" unicode="&#x16f;" horiz-adv-x="508" 
d="M145 659c0 70 45 106 106 106s106 -36 106 -106c0 -71 -45 -108 -106 -108s-106 37 -106 108zM214 659c0 -28 15 -42 37 -42c21 0 37 14 37 42c0 26 -16 41 -37 41c-22 0 -37 -15 -37 -41zM469 0h-139l-13 83c-28 -63 -75 -98 -133 -98c-107 0 -149 83 -149 187v329h175
v-287c0 -54 12 -71 39 -71s47 26 47 95v263h173v-501z" />
    <glyph glyph-name="utilde" unicode="&#x169;" horiz-adv-x="508" 
d="M314 708h94c6 -101 -44 -133 -88 -133c-49 0 -80 32 -111 32c-17 0 -21 -17 -21 -33h-92c-7 101 43 132 87 132c48 0 80 -30 111 -30c18 0 20 15 20 32zM469 0h-139l-13 83c-28 -63 -75 -98 -133 -98c-107 0 -149 83 -149 187v329h175v-287c0 -54 12 -71 39 -71
s47 26 47 95v263h173v-501z" />
    <glyph glyph-name="wacute" unicode="&#x1e83;" horiz-adv-x="656" 
d="M484 703l-108 -134h-130v5l67 136h171v-7zM264 500h134l53 -272l40 273h155l-119 -501h-149l-49 278l-49 -278h-150l-118 501h157l44 -271z" />
    <glyph glyph-name="wdieresis" unicode="&#x1e85;" horiz-adv-x="656" 
d="M351 650c0 53 29 81 82 81s82 -27 82 -81c0 -55 -29 -83 -82 -83s-82 28 -82 83zM146 650c0 53 30 81 81 81c54 0 83 -27 83 -81c0 -55 -29 -83 -83 -83c-51 0 -81 28 -81 83zM264 500h134l53 -272l40 273h155l-119 -501h-149l-49 278l-49 -278h-150l-118 501h157
l44 -271z" />
    <glyph glyph-name="wgrave" unicode="&#x1e81;" horiz-adv-x="656" 
d="M270 569l-109 134v7h179l63 -136v-5h-133zM264 500h134l53 -272l40 273h155l-119 -501h-149l-49 278l-49 -278h-150l-118 501h157l44 -271z" />
    <glyph glyph-name="wcircumflex" unicode="&#x175;" horiz-adv-x="656" 
d="M320 622l-40 -53h-119v4l96 137h136l95 -137v-4h-125zM264 500h134l53 -272l40 273h155l-119 -501h-149l-49 278l-49 -278h-150l-118 501h157l44 -271z" />
    <glyph glyph-name="ycircumflex" unicode="&#x177;" horiz-adv-x="484" 
d="M237 622l-40 -53h-119v4l96 137h136l95 -137v-4h-125zM149 -30l6 31l-147 500h179l57 -297l56 297h177l-176 -592c-29 -101 -95 -132 -178 -132c-47 0 -81 8 -111 25l23 131c26 -14 51 -18 60 -18c33 0 46 16 54 55z" />
    <glyph glyph-name="zacute" unicode="&#x17a;" horiz-adv-x="407" 
d="M363 703l-108 -134h-130v5l67 136h171v-7zM19 0v105l174 259h-171v137h358v-110l-169 -254h177v-137h-369z" />
    <glyph glyph-name="zdotaccent" unicode="&#x17c;" horiz-adv-x="407" 
d="M115 648c0 56 31 84 87 84c57 0 86 -28 86 -84c0 -53 -29 -82 -86 -82c-56 0 -87 29 -87 82zM19 0v105l174 259h-171v137h358v-110l-169 -254h177v-137h-369z" />
    <glyph glyph-name="cordinal" unicode="&#xe181;" horiz-adv-x="311" 
d="M167 337c-90 0 -149 55 -149 188s58 191 155 191c61 0 103 -21 128 -81l-86 -64c-11 26 -23 37 -39 37c-25 0 -40 -20 -40 -83c0 -54 8 -86 41 -86c22 0 35 15 41 40l84 -52c-25 -58 -66 -90 -135 -90z" />
    <glyph glyph-name="ordfeminine.school" unicode="&#xe182;" horiz-adv-x="364" 
d="M213 525c0 65 -17 89 -38 89c-24 0 -39 -25 -39 -89c0 -56 11 -86 38 -86c23 0 39 29 39 86zM231 348l-8 52c-19 -42 -51 -63 -88 -63c-69 0 -117 62 -117 184c0 134 51 195 120 195c41 0 71 -19 88 -60l8 49h99v-357h-102z" />
    <glyph glyph-name="a.school" unicode="&#xe151;" horiz-adv-x="503" 
d="M295 247c0 91 -19 131 -54 131c-32 0 -52 -38 -52 -128c0 -84 15 -125 51 -125c35 0 55 40 55 122zM186 -15c-96 0 -162 88 -162 257c0 189 71 274 169 274c57 0 100 -27 124 -81l11 66h137v-501h-140l-12 69c-30 -55 -71 -84 -127 -84z" />
    <glyph glyph-name="aacute.school" unicode="&#xe153;" horiz-adv-x="503" 
d="M395 703l-108 -134h-130v5l67 136h171v-7zM295 247c0 91 -19 131 -54 131c-32 0 -52 -38 -52 -128c0 -84 15 -125 51 -125c35 0 55 40 55 122zM186 -15c-96 0 -162 88 -162 257c0 189 71 274 169 274c57 0 100 -27 124 -81l11 66h137v-501h-140l-12 69
c-30 -55 -71 -84 -127 -84z" />
    <glyph glyph-name="abreve.school" unicode="&#xe15a;" horiz-adv-x="503" 
d="M291 709h97c0 -112 -56 -148 -152 -148c-97 0 -151 36 -151 148h96c0 -45 17 -58 55 -58c39 0 55 13 55 58zM295 247c0 91 -19 131 -54 131c-32 0 -52 -38 -52 -128c0 -84 15 -125 51 -125c35 0 55 40 55 122zM186 -15c-96 0 -162 88 -162 257c0 189 71 274 169 274
c57 0 100 -27 124 -81l11 66h137v-501h-140l-12 69c-30 -55 -71 -84 -127 -84z" />
    <glyph glyph-name="acircumflex.school" unicode="&#xe154;" horiz-adv-x="500" 
d="M231 622l-40 -53h-119v4l96 137h136l95 -137v-4h-125zM295 247c0 91 -19 131 -54 131c-32 0 -52 -38 -52 -128c0 -84 15 -125 51 -125c35 0 55 40 55 122zM186 -15c-96 0 -162 88 -162 257c0 189 71 274 169 274c57 0 100 -27 124 -81l11 66h137v-501h-140l-12 69
c-30 -55 -71 -84 -127 -84z" />
    <glyph glyph-name="adieresis.school" unicode="&#xe155;" horiz-adv-x="500" 
d="M254 650c0 53 29 81 82 81s82 -27 82 -81c0 -55 -29 -83 -82 -83s-82 28 -82 83zM49 650c0 53 30 81 81 81c54 0 83 -27 83 -81c0 -55 -29 -83 -83 -83c-51 0 -81 28 -81 83zM295 247c0 91 -19 131 -54 131c-32 0 -52 -38 -52 -128c0 -84 15 -125 51 -125
c35 0 55 40 55 122zM186 -15c-96 0 -162 88 -162 257c0 189 71 274 169 274c57 0 100 -27 124 -81l11 66h137v-501h-140l-12 69c-30 -55 -71 -84 -127 -84z" />
    <glyph glyph-name="agrave.school" unicode="&#xe152;" horiz-adv-x="503" 
d="M182 569l-109 134v7h179l63 -136v-5h-133zM295 247c0 91 -19 131 -54 131c-32 0 -52 -38 -52 -128c0 -84 15 -125 51 -125c35 0 55 40 55 122zM186 -15c-96 0 -162 88 -162 257c0 189 71 274 169 274c57 0 100 -27 124 -81l11 66h137v-501h-140l-12 69
c-30 -55 -71 -84 -127 -84z" />
    <glyph glyph-name="amacron.school" unicode="&#xe159;" horiz-adv-x="503" 
d="M360 685v-101h-246v101h246zM295 247c0 91 -19 131 -54 131c-32 0 -52 -38 -52 -128c0 -84 15 -125 51 -125c35 0 55 40 55 122zM186 -15c-96 0 -162 88 -162 257c0 189 71 274 169 274c57 0 100 -27 124 -81l11 66h137v-501h-140l-12 69c-30 -55 -71 -84 -127 -84z" />
    <glyph glyph-name="aogonek.school" unicode="&#xe150;" horiz-adv-x="503" 
d="M295 247c0 91 -19 131 -54 131c-32 0 -52 -38 -52 -128c0 -84 15 -125 51 -125c35 0 55 40 55 122zM507 -203c-28 -22 -57 -35 -95 -35c-64 0 -133 34 -133 141c0 48 17 86 43 113l-9 53c-30 -55 -71 -84 -127 -84c-96 0 -162 88 -162 257c0 189 71 274 169 274
c57 0 100 -27 124 -81l11 66h137v-501h-28c-50 -5 -67 -42 -67 -79c0 -42 29 -58 55 -58c16 0 32 6 45 17z" />
    <glyph glyph-name="aring.school" unicode="&#xe157;" horiz-adv-x="503" 
d="M129 659c0 70 45 106 106 106s106 -36 106 -106c0 -71 -45 -108 -106 -108s-106 37 -106 108zM198 659c0 -28 15 -42 37 -42c21 0 37 14 37 42c0 26 -16 41 -37 41c-22 0 -37 -15 -37 -41zM295 247c0 91 -19 131 -54 131c-32 0 -52 -38 -52 -128c0 -84 15 -125 51 -125
c35 0 55 40 55 122zM186 -15c-96 0 -162 88 -162 257c0 189 71 274 169 274c57 0 100 -27 124 -81l11 66h137v-501h-140l-12 69c-30 -55 -71 -84 -127 -84z" />
    <glyph glyph-name="atilde.school" unicode="&#xe156;" horiz-adv-x="503" 
d="M298 708h94c6 -101 -44 -133 -88 -133c-49 0 -80 32 -111 32c-17 0 -21 -17 -21 -33h-92c-7 101 43 132 87 132c48 0 80 -30 111 -30c18 0 20 15 20 32zM295 247c0 91 -19 131 -54 131c-32 0 -52 -38 -52 -128c0 -84 15 -125 51 -125c35 0 55 40 55 122zM186 -15
c-96 0 -162 88 -162 257c0 189 71 274 169 274c57 0 100 -27 124 -81l11 66h137v-501h-140l-12 69c-30 -55 -71 -84 -127 -84z" />
    <glyph glyph-name="y.school" unicode="&#xe16b;" horiz-adv-x="497" 
d="M220 -223c-109 0 -174 43 -208 125l118 68c17 -37 40 -59 76 -59c57 0 81 38 81 117v39c-26 -40 -63 -59 -108 -59c-106 0 -145 82 -145 186v307h172v-262c0 -57 11 -75 37 -75s45 29 44 100v237h174v-462c0 -171 -95 -260 -241 -262z" />
    <glyph glyph-name="yacute.school" unicode="&#xe16d;" horiz-adv-x="498" 
d="M403 703l-108 -134h-130v5l67 136h171v-7zM220 -223c-109 0 -174 43 -208 125l118 68c17 -37 40 -59 76 -59c57 0 81 38 81 117v39c-26 -40 -63 -59 -108 -59c-106 0 -145 82 -145 186v307h172v-262c0 -57 11 -75 37 -75s45 29 44 100v237h174v-462
c0 -171 -95 -260 -241 -262z" />
    <glyph glyph-name="ycircumflex.school" unicode="&#xe16e;" horiz-adv-x="498" 
d="M242 622l-40 -53h-119v4l96 137h136l95 -137v-4h-125zM220 -223c-109 0 -174 43 -208 125l118 68c17 -37 40 -59 76 -59c57 0 81 38 81 117v39c-26 -40 -63 -59 -108 -59c-106 0 -145 82 -145 186v307h172v-262c0 -57 11 -75 37 -75s45 29 44 100v237h174v-462
c0 -171 -95 -260 -241 -262z" />
    <glyph glyph-name="ydieresis.school" unicode="&#xe16f;" horiz-adv-x="498" 
d="M266 650c0 53 29 81 82 81s82 -27 82 -81c0 -55 -29 -83 -82 -83s-82 28 -82 83zM61 650c0 53 30 81 81 81c54 0 83 -27 83 -81c0 -55 -29 -83 -83 -83c-51 0 -81 28 -81 83zM220 -223c-109 0 -174 43 -208 125l118 68c17 -37 40 -59 76 -59c57 0 81 38 81 117v39
c-26 -40 -63 -59 -108 -59c-106 0 -145 82 -145 186v307h172v-262c0 -57 11 -75 37 -75s45 29 44 100v237h174v-462c0 -171 -95 -260 -241 -262z" />
    <glyph glyph-name="caronSlovak" unicode="&#xe413;" horiz-adv-x="462" 
d="M308 423h-109l6 277h130z" />
    <glyph glyph-name="commaaccent" unicode="&#xe414;" horiz-adv-x="462" 
d="M318 -155c0 -104 -60 -179 -136 -196l-33 64c37 13 68 39 77 73c-48 1 -78 28 -78 79c0 56 30 84 85 84c53 0 85 -35 85 -104z" />
    <glyph glyph-name="commaaccent" unicode="&#xf6c3;" horiz-adv-x="462" 
d="M318 -155c0 -104 -60 -179 -136 -196l-33 64c37 13 68 39 77 73c-48 1 -78 28 -78 79c0 56 30 84 85 84c53 0 85 -35 85 -104z" />
    <glyph glyph-name="exclamdown.cap" unicode="&#xe441;" horiz-adv-x="219" 
d="M106 709c57 0 90 -36 90 -94s-33 -92 -90 -92c-59 0 -90 34 -90 92s31 94 90 94zM20 -1l26 474h119l25 -474h-170z" />
    <glyph glyph-name="questiondown.cap" unicode="&#xe444;" horiz-adv-x="432" 
d="M211 714c57 0 89 -36 89 -94s-32 -92 -89 -92c-59 0 -91 34 -91 92s32 94 91 94zM266 478l10 -186h-45c-49 0 -81 -31 -81 -89c0 -50 23 -80 69 -80c43 0 69 26 82 78l120 -53c-26 -125 -113 -166 -219 -166c-136 0 -205 76 -205 211c0 124 70 186 140 209l10 76h119z
" />
    <glyph glyph-name="reversequoteleft" unicode="&#x201b;" horiz-adv-x="205" 
d="M185 501l-33 -69c-86 27 -136 110 -136 217c0 64 29 99 83 99c53 0 83 -31 83 -87c0 -51 -26 -81 -69 -87c11 -37 40 -61 72 -73z" />
    <glyph glyph-name="reversequotedblleft" unicode="&#x201f;" horiz-adv-x="396" 
d="M377 501l-33 -69c-86 27 -136 110 -136 217c0 64 29 99 83 99c53 0 83 -31 83 -87c0 -51 -26 -81 -69 -87c11 -37 40 -61 72 -73zM185 501l-33 -69c-86 27 -136 110 -136 217c0 64 29 99 83 99c53 0 83 -31 83 -87c0 -51 -26 -81 -69 -87c11 -37 40 -61 72 -73z" />
    <glyph glyph-name="doublebar" unicode="&#x2016;" horiz-adv-x="458" 
d="M252 -65v831h156v-831h-156zM51 -65v831h155v-831h-155z" />
    <glyph glyph-name="enspace" unicode="&#x2002;" horiz-adv-x="383" 
 />
    <glyph glyph-name="emspace" unicode="&#x2003;" horiz-adv-x="764" 
 />
    <glyph glyph-name="threeperemspace" unicode="&#x2004;" horiz-adv-x="255" 
 />
    <glyph glyph-name="fourperemspace" unicode="&#x2005;" horiz-adv-x="193" 
 />
    <glyph glyph-name="sixperemspace" unicode="&#x2006;" horiz-adv-x="128" 
 />
    <glyph glyph-name="figurespace" unicode="&#x2007;" horiz-adv-x="478" 
 />
    <glyph glyph-name="punctuationspace" unicode="&#x2008;" horiz-adv-x="216" 
 />
    <glyph glyph-name="thinspace" unicode="&#x2009;" horiz-adv-x="153" 
 />
    <glyph glyph-name="hairspace" unicode="&#x200a;" horiz-adv-x="77" 
 />
    <glyph glyph-name="zerowidthspace" unicode="&#x200b;" horiz-adv-x="0" 
 />
    <glyph glyph-name="uni00AD" unicode="&#xad;" horiz-adv-x="319" 
d="M279 410v-146h-239v146h239z" />
    <glyph glyph-name="onethirdemdash" unicode="&#xe471;" horiz-adv-x="295" 
d="M256 410v-146h-216v146h216z" />
    <glyph glyph-name="threequarteremdash" unicode="&#xe472;" horiz-adv-x="534" 
d="M495 410v-146h-455v146h455z" />
    <glyph glyph-name="figuredash" unicode="&#x2012;" horiz-adv-x="480" 
d="M427 410v-146h-373v146h373z" />
    <glyph glyph-name="uni2015" unicode="&#x2015;" horiz-adv-x="833" 
d="M793 410v-146h-753v146h753z" />
    <glyph glyph-name="at.cap" unicode="&#xe513;" horiz-adv-x="624" 
d="M317 1c-176 0 -286 138 -286 349c0 213 109 350 286 350s279 -124 279 -314c0 -131 -53 -204 -144 -204c-41 0 -69 15 -90 44c-25 -34 -52 -49 -89 -49c-55 0 -92 36 -92 97c0 77 64 115 131 115h26c-2 43 -28 53 -48 53c-24 0 -41 -12 -53 -36l-63 57
c26 47 72 73 139 73c77 0 135 -41 135 -147v-102c0 -28 9 -44 30 -44c32 0 61 47 61 143c0 177 -97 262 -222 262c-130 0 -230 -98 -230 -298c0 -201 103 -298 230 -298c71 0 128 23 170 81l39 -36c-47 -65 -119 -96 -209 -96zM303 254c22 0 35 18 35 51v23h-13
c-29 0 -48 -20 -48 -45c0 -19 11 -29 26 -29z" />
    <glyph glyph-name="Euro" unicode="&#x20ac;" horiz-adv-x="585" 
d="M571 175c-34 -127 -113 -192 -249 -192c-146 0 -226 81 -253 243h-59v88h51c-1 14 -1 30 -1 39h-50v87h54c21 189 110 276 268 276c119 0 201 -51 234 -198l-151 -46c-16 61 -42 84 -86 84c-45 0 -78 -28 -90 -116h140l-20 -87h-126c0 -13 0 -26 1 -39h117l-20 -88h-83
c13 -64 43 -87 81 -87c43 0 76 32 88 94z" />
    <glyph glyph-name="zero.LP" unicode="&#xe534;" horiz-adv-x="564" 
d="M30 350c0 247 75 366 252 366c176 0 252 -119 252 -366c0 -246 -76 -366 -252 -366c-177 0 -252 122 -252 366zM358 350c0 161 -28 214 -76 214s-75 -54 -75 -213c0 -162 27 -216 75 -216s76 54 76 215z" />
    <glyph glyph-name="one.LP" unicode="&#xe536;" horiz-adv-x="354" 
d="M301 0h-178v479l-53 -41l-66 150l180 121h117v-709z" />
    <glyph glyph-name="two.LP" unicode="&#xe537;" horiz-adv-x="480" 
d="M31 0v124l196 267c34 47 47 81 47 108c0 37 -20 57 -55 57s-62 -18 -81 -73l-137 55c36 126 125 178 237 178c127 0 211 -70 211 -195c0 -83 -38 -148 -120 -257l-81 -110l207 7v-161h-424z" />
    <glyph glyph-name="three.LP" unicode="&#xe538;" horiz-adv-x="497" 
d="M231 133c41 0 66 25 66 73c0 47 -30 73 -75 73h-53v142h53c36 0 65 26 65 70s-26 70 -65 70c-40 0 -63 -25 -75 -68l-130 54c35 120 113 169 229 169c142 0 215 -80 215 -189c0 -73 -29 -126 -85 -168c56 -31 91 -88 91 -167c0 -124 -86 -208 -225 -208
c-107 0 -188 45 -232 158l129 70c25 -61 52 -79 92 -79z" />
    <glyph glyph-name="four.LP" unicode="&#xe539;" horiz-adv-x="552" 
d="M23 137v133l146 430h173l-144 -404h115v183h164v-183h59v-159h-59v-137h-164v137h-290z" />
    <glyph glyph-name="five.LP" unicode="&#xe53a;" horiz-adv-x="502" 
d="M235 -16c-106 0 -184 47 -227 156l128 69c23 -59 51 -75 91 -75c50 0 76 38 76 96c0 65 -31 90 -71 90c-28 0 -53 -14 -69 -40l-124 58l23 362h394v-152l-251 1l-6 -114c21 12 53 20 87 20c112 0 191 -71 191 -224c0 -152 -84 -247 -242 -247z" />
    <glyph glyph-name="six.LP" unicode="&#xe53b;" horiz-adv-x="537" 
d="M290 -16c-170 0 -260 116 -260 363c0 235 81 369 267 369c111 0 177 -48 210 -136l-124 -70c-15 39 -39 60 -77 60c-70 0 -101 -59 -101 -213v-16c21 60 63 100 133 100c98 0 171 -73 171 -219c0 -137 -71 -238 -219 -238zM279 129c38 0 57 32 57 90c0 56 -20 89 -56 89
c-35 0 -59 -34 -59 -89c0 -56 22 -90 58 -90z" />
    <glyph glyph-name="seven.LP" unicode="&#xe53c;" horiz-adv-x="457" 
d="M103 0c0 260 79 439 175 540l-261 -4v164h431v-128c-101 -155 -149 -305 -146 -572h-199z" />
    <glyph glyph-name="eight.LP" unicode="&#xe53d;" horiz-adv-x="521" 
d="M260 -16c-150 0 -230 80 -230 213c0 80 34 139 94 170c-44 33 -72 85 -72 149c0 129 73 200 208 200c137 0 211 -71 211 -200c0 -64 -30 -116 -73 -149c58 -31 93 -89 93 -170c0 -133 -78 -213 -231 -213zM318 505c0 38 -20 72 -57 72c-38 0 -57 -34 -57 -72
c0 -39 21 -70 57 -70s57 30 57 70zM261 121c39 0 62 32 62 80c0 44 -21 80 -60 80c-44 0 -65 -36 -65 -80c0 -47 24 -80 63 -80z" />
    <glyph glyph-name="nine.LP" unicode="&#xe53e;" horiz-adv-x="533" 
d="M251 568c-36 0 -56 -33 -56 -91c0 -56 18 -92 56 -92c36 0 58 36 58 92c0 55 -22 91 -58 91zM242 716c170 0 259 -116 259 -363c0 -234 -81 -369 -271 -369c-99 0 -174 36 -209 117l113 88c19 -39 48 -62 87 -62c76 0 106 61 106 210v16c-21 -61 -63 -103 -133 -103
c-96 0 -168 77 -168 225c0 139 69 241 216 241z" />
    <glyph glyph-name="zero.OT" unicode="&#xe555;" 
d="M268 616c149 0 235 -104 235 -316c0 -210 -87 -316 -235 -316c-145 0 -235 103 -235 316s86 316 235 316zM268 465c-44 0 -68 -40 -68 -165c0 -123 24 -166 68 -166c42 0 66 43 66 167c0 122 -24 164 -66 164z" />
    <glyph glyph-name="one.OT" unicode="&#xe557;" 
d="M479 0h-424v152h125v227l-52 -41l-64 150l176 122h114v-458h125v-152z" />
    <glyph glyph-name="two.OT" unicode="&#xe558;" 
d="M60 0v107l162 192c49 58 74 90 74 120s-18 44 -49 44s-56 -20 -69 -60l-130 57c44 117 123 156 220 156c118 0 202 -56 202 -172c0 -65 -39 -117 -119 -221l-71 -89l202 7v-141h-422z" />
    <glyph glyph-name="three.OT" unicode="&#xe559;" 
d="M249 31c41 0 67 26 67 75c0 47 -31 73 -76 73h-53v142h53c37 0 65 26 65 72c0 44 -25 70 -65 70c-38 0 -61 -25 -72 -66l-130 53c34 116 111 166 226 166c141 0 214 -80 214 -189c0 -73 -28 -126 -84 -168c56 -31 90 -88 90 -167c0 -124 -85 -208 -224 -208
c-106 0 -192 45 -229 158l127 69c25 -62 52 -80 91 -80z" />
    <glyph glyph-name="four.OT" unicode="&#xe55a;" 
d="M18 37v132l143 431h170l-140 -404h109v179h162v-179h54v-159h-54v-137h-162v137h-282z" />
    <glyph glyph-name="five.OT" unicode="&#xe55b;" 
d="M253 -116c-105 0 -187 44 -226 156l129 69c24 -63 50 -80 90 -80c48 0 74 40 74 99c0 63 -32 92 -72 92c-30 0 -52 -14 -67 -40l-122 58l22 362h389v-152l-248 1l-7 -114c25 13 52 21 84 21c117 0 194 -76 194 -224c0 -156 -83 -248 -240 -248z" />
    <glyph glyph-name="six.OT" unicode="&#xe55c;" 
d="M285 -16c-167 0 -254 116 -254 363c0 235 79 369 263 369c110 0 176 -48 209 -136l-124 -70c-15 39 -38 60 -78 60c-72 0 -100 -62 -100 -213v-13c19 58 63 97 133 97c95 0 167 -73 167 -219c0 -137 -69 -238 -216 -238zM276 129c38 0 58 33 58 90c0 56 -20 89 -58 89
c-36 0 -61 -33 -61 -89s24 -90 61 -90z" />
    <glyph glyph-name="seven.OT" unicode="&#xe55d;" 
d="M139 -100c0 245 72 425 173 540l-259 -3v163h429v-128c-97 -160 -150 -309 -146 -572h-197z" />
    <glyph glyph-name="eight.OT" unicode="&#xe55e;" 
d="M266 -16c-150 0 -229 83 -229 213c0 78 34 139 93 170c-44 33 -72 87 -72 151c0 125 74 198 208 198c138 0 211 -73 211 -198c0 -64 -30 -118 -73 -151c59 -31 93 -91 93 -170c0 -130 -77 -213 -231 -213zM324 505c0 38 -19 72 -57 72c-37 0 -57 -34 -57 -72
c0 -39 21 -70 57 -70c37 0 57 30 57 70zM267 121c40 0 62 32 62 80c0 44 -21 80 -61 80c-42 0 -63 -36 -63 -80c0 -47 23 -80 62 -80z" />
    <glyph glyph-name="nine.OT" unicode="&#xe55f;" 
d="M260 468c-37 0 -57 -33 -57 -89s18 -92 57 -92c32 0 59 33 59 92c0 54 -23 89 -59 89zM250 616c167 0 255 -116 255 -363c0 -234 -80 -369 -266 -369c-100 0 -175 39 -210 118l115 86c18 -37 46 -61 87 -61c71 0 105 59 105 205v19c-20 -58 -64 -98 -134 -98
c-95 0 -166 75 -166 223c0 138 69 240 214 240z" />
    <glyph glyph-name="zero.LT" unicode="&#xe53f;" 
d="M15 350c0 247 75 366 252 366c176 0 252 -119 252 -366c0 -246 -76 -366 -252 -366c-177 0 -252 122 -252 366zM343 350c0 161 -28 214 -76 214s-75 -54 -75 -213c0 -162 27 -216 75 -216s76 54 76 215z" />
    <glyph glyph-name="one.LT" unicode="&#xe541;" 
d="M489 0h-444v155h133v324l-53 -41l-66 150l180 121h117v-554h133v-155z" />
    <glyph glyph-name="two.LT" unicode="&#xe542;" 
d="M70 0v124l196 267c34 47 47 81 47 108c0 37 -20 57 -55 57s-62 -18 -81 -73l-137 55c36 126 125 178 237 178c127 0 211 -70 211 -195c0 -83 -38 -148 -120 -257l-81 -110l207 7v-161h-424z" />
    <glyph glyph-name="three.LT" unicode="&#xe543;" 
d="M255 133c41 0 66 25 66 73c0 47 -30 73 -75 73h-53v142h53c36 0 65 26 65 70s-26 70 -65 70c-40 0 -63 -25 -75 -68l-130 54c35 120 113 169 229 169c142 0 215 -80 215 -189c0 -73 -29 -126 -85 -168c56 -31 91 -88 91 -167c0 -124 -86 -208 -225 -208
c-107 0 -188 45 -232 158l129 70c25 -61 52 -79 92 -79z" />
    <glyph glyph-name="four.LT" unicode="&#xe544;" 
d="M11 137v133l146 430h173l-144 -404h115v183h164v-183h59v-159h-59v-137h-164v137h-290z" />
    <glyph glyph-name="five.LT" unicode="&#xe545;" 
d="M255 -16c-106 0 -184 47 -227 156l128 69c23 -59 51 -75 91 -75c50 0 76 38 76 96c0 65 -31 90 -71 90c-28 0 -53 -14 -69 -40l-124 58l23 362h394v-152l-251 1l-6 -114c21 12 53 20 87 20c112 0 191 -71 191 -224c0 -152 -84 -247 -242 -247z" />
    <glyph glyph-name="six.LT" unicode="&#xe546;" 
d="M288 -16c-170 0 -260 116 -260 363c0 235 81 369 267 369c111 0 177 -48 210 -136l-124 -70c-15 39 -39 60 -77 60c-70 0 -101 -59 -101 -213v-16c21 60 63 100 133 100c98 0 171 -73 171 -219c0 -137 -71 -238 -219 -238zM277 129c38 0 57 32 57 90c0 56 -20 89 -56 89
c-35 0 -59 -34 -59 -89c0 -56 22 -90 58 -90z" />
    <glyph glyph-name="seven.LT" unicode="&#xe547;" 
d="M138 0c0 260 79 439 175 540l-261 -4v164h431v-128c-101 -155 -149 -305 -146 -572h-199z" />
    <glyph glyph-name="eight.LT" unicode="&#xe548;" 
d="M267 -16c-150 0 -230 80 -230 213c0 80 34 139 94 170c-44 33 -72 85 -72 149c0 129 73 200 208 200c137 0 211 -71 211 -200c0 -64 -30 -116 -73 -149c58 -31 93 -89 93 -170c0 -133 -78 -213 -231 -213zM325 505c0 38 -20 72 -57 72c-38 0 -57 -34 -57 -72
c0 -39 21 -70 57 -70s57 30 57 70zM268 121c39 0 62 32 62 80c0 44 -21 80 -60 80c-44 0 -65 -36 -65 -80c0 -47 24 -80 63 -80z" />
    <glyph glyph-name="nine.LT" unicode="&#xe549;" 
d="M257 568c-36 0 -56 -33 -56 -91c0 -56 18 -92 56 -92c36 0 58 36 58 92c0 55 -22 91 -58 91zM248 716c170 0 259 -116 259 -363c0 -234 -81 -369 -271 -369c-99 0 -174 36 -209 117l113 88c19 -39 48 -62 87 -62c76 0 106 61 106 210v16c-21 -61 -63 -103 -133 -103
c-96 0 -168 77 -168 225c0 139 69 241 216 241z" />
    <glyph glyph-name="uni2070" unicode="&#x2070;" horiz-adv-x="352" 
d="M17 501c0 143 47 216 158 216c112 0 160 -73 160 -216c0 -145 -48 -217 -160 -217c-111 0 -158 73 -158 217zM216 501c0 89 -15 117 -41 117c-25 0 -39 -29 -39 -117c0 -89 14 -119 40 -119c25 0 40 30 40 119z" />
    <glyph glyph-name="uni2074" unicode="&#x2074;" horiz-adv-x="349" 
d="M15 369v87l88 251h116l-86 -234h61v93h110v-93h35v-104h-35v-75h-110v75h-179z" />
    <glyph glyph-name="uni2075" unicode="&#x2075;" horiz-adv-x="311" 
d="M134 609l-3 -55c11 6 29 10 50 10c69 0 118 -43 118 -133c0 -95 -57 -147 -153 -147c-65 0 -114 26 -144 91l86 48c14 -34 29 -41 51 -41c27 0 41 20 41 49c0 33 -17 46 -36 46c-16 0 -29 -8 -37 -22l-85 38l14 214h252v-99z" />
    <glyph glyph-name="uni2076" unicode="&#x2076;" horiz-adv-x="336" 
d="M183 284c-110 0 -166 70 -166 215c0 136 48 218 166 218c71 0 114 -29 134 -82l-82 -45c-8 20 -19 31 -43 31c-40 0 -56 -33 -56 -115v-8c12 33 36 56 77 56c60 0 106 -43 106 -129c0 -81 -44 -141 -136 -141zM145 424c0 -29 11 -46 29 -46c20 0 28 17 28 46
c0 28 -10 45 -28 45c-17 0 -29 -17 -29 -45z" />
    <glyph glyph-name="uni2077" unicode="&#x2077;" horiz-adv-x="291" 
d="M201 294h-137c0 154 50 253 106 309l-159 -4v108h275v-83c-62 -95 -85 -164 -85 -330z" />
    <glyph glyph-name="uni2078" unicode="&#x2078;" horiz-adv-x="324" 
d="M162 284c-95 0 -145 47 -145 127c0 46 19 81 57 100c-27 19 -44 49 -44 86c0 78 46 120 132 120c88 0 133 -42 133 -120c0 -37 -18 -67 -44 -86c36 -20 56 -53 56 -100c0 -80 -48 -127 -145 -127zM192 589c0 19 -10 37 -29 37c-20 0 -31 -18 -31 -37c0 -20 12 -36 30 -36
c19 0 30 16 30 36zM194 413c0 21 -11 39 -31 39c-22 0 -33 -18 -33 -39c0 -24 13 -42 32 -42c20 0 32 17 32 42z" />
    <glyph glyph-name="uni2079" unicode="&#x2079;" horiz-adv-x="333" 
d="M185 573c0 28 -12 47 -29 47s-27 -16 -27 -45c0 -28 9 -48 28 -48c17 0 28 18 28 46zM150 717c109 0 166 -70 166 -215c0 -135 -50 -218 -172 -218c-59 0 -111 18 -133 62l70 63c12 -22 29 -32 54 -32c47 0 62 36 62 114v7c-13 -35 -37 -59 -77 -59
c-61 0 -104 45 -104 135c0 82 41 143 134 143z" />
    <glyph glyph-name="uni207A" unicode="&#x207a;" horiz-adv-x="247" 
d="M167 356h-86v85h-63v80h63v87h86v-87h62v-80h-62v-85z" />
    <glyph glyph-name="uni207B" unicode="&#x207b;" horiz-adv-x="247" 
d="M229 522v-81h-211v81h211z" />
    <glyph glyph-name="uni207C" unicode="&#x207c;" horiz-adv-x="247" 
d="M229 572v-81h-211v81h211zM229 468v-81h-211v81h211z" />
    <glyph glyph-name="uni207D" unicode="&#x207d;" horiz-adv-x="191" 
d="M180 294l-12 -102c-103 13 -152 105 -152 266s48 252 148 265l16 -101c-49 -9 -75 -49 -75 -164c0 -117 26 -156 75 -164z" />
    <glyph glyph-name="uni207E" unicode="&#x207e;" horiz-adv-x="191" 
d="M23 192l-12 102c49 8 75 47 75 164c0 115 -26 155 -75 164l16 101c100 -13 148 -104 148 -265s-49 -253 -152 -266z" />
    <glyph glyph-name="uni2080" unicode="&#x2080;" horiz-adv-x="352" 
d="M17 207c0 143 47 216 158 216c112 0 160 -73 160 -216c0 -145 -48 -217 -160 -217c-111 0 -158 73 -158 217zM216 207c0 89 -15 117 -41 117c-25 0 -39 -29 -39 -117c0 -89 14 -119 40 -119c25 0 40 30 40 119z" />
    <glyph glyph-name="uni2081" unicode="&#x2081;" horiz-adv-x="230" 
d="M200 0h-121v270l-32 -22l-44 98l117 74h80v-420z" />
    <glyph glyph-name="uni2082" unicode="&#x2082;" horiz-adv-x="300" 
d="M21 0v80l119 154c18 26 26 43 26 56c0 18 -11 28 -29 28s-33 -9 -44 -38l-93 35c22 75 79 108 150 108c80 0 135 -42 135 -117c0 -53 -26 -90 -77 -157l-37 -49l115 5v-105h-265z" />
    <glyph glyph-name="uni2083" unicode="&#x2083;" horiz-adv-x="309" 
d="M151 -10c-67 0 -118 27 -147 96l86 46c16 -36 30 -45 53 -45c21 0 34 13 34 35c0 24 -18 38 -42 38h-29v89h30c19 0 36 13 36 37c0 23 -15 35 -35 35c-21 0 -35 -12 -41 -35l-87 35c21 72 70 102 143 102c91 0 138 -50 138 -114c0 -44 -18 -73 -53 -100
c35 -18 56 -52 56 -96c0 -75 -57 -123 -142 -123z" />
    <glyph glyph-name="uni2084" unicode="&#x2084;" horiz-adv-x="349" 
d="M15 75v87l88 251h116l-86 -234h61v93h110v-93h35v-104h-35v-75h-110v75h-179z" />
    <glyph glyph-name="uni2085" unicode="&#x2085;" horiz-adv-x="311" 
d="M134 315l-3 -55c11 6 29 10 50 10c69 0 118 -43 118 -133c0 -95 -57 -147 -153 -147c-65 0 -114 26 -144 91l86 48c14 -34 29 -41 51 -41c27 0 41 20 41 49c0 33 -17 46 -36 46c-16 0 -29 -8 -37 -22l-85 38l14 214h252v-99z" />
    <glyph glyph-name="uni2086" unicode="&#x2086;" horiz-adv-x="336" 
d="M183 -10c-110 0 -166 70 -166 215c0 136 48 218 166 218c71 0 114 -29 134 -82l-82 -45c-8 20 -19 31 -43 31c-40 0 -56 -33 -56 -115v-8c12 33 36 56 77 56c60 0 106 -43 106 -129c0 -81 -44 -141 -136 -141zM145 130c0 -29 11 -46 29 -46c20 0 28 17 28 46
c0 28 -10 45 -28 45c-17 0 -29 -17 -29 -45z" />
    <glyph glyph-name="uni2087" unicode="&#x2087;" horiz-adv-x="291" 
d="M201 0h-137c0 154 50 253 106 309l-159 -4v108h275v-83c-62 -95 -85 -164 -85 -330z" />
    <glyph glyph-name="uni2088" unicode="&#x2088;" horiz-adv-x="324" 
d="M162 -10c-95 0 -145 47 -145 127c0 46 19 81 57 100c-27 19 -44 49 -44 86c0 78 46 120 132 120c88 0 133 -42 133 -120c0 -37 -18 -67 -44 -86c36 -20 56 -53 56 -100c0 -80 -48 -127 -145 -127zM192 295c0 19 -10 37 -29 37c-20 0 -31 -18 -31 -37c0 -20 12 -36 30 -36
c19 0 30 16 30 36zM194 119c0 21 -11 39 -31 39c-22 0 -33 -18 -33 -39c0 -24 13 -42 32 -42c20 0 32 17 32 42z" />
    <glyph glyph-name="uni2089" unicode="&#x2089;" horiz-adv-x="333" 
d="M185 279c0 28 -12 47 -29 47s-27 -16 -27 -45c0 -28 9 -48 28 -48c17 0 28 18 28 46zM150 423c109 0 166 -70 166 -215c0 -135 -50 -218 -172 -218c-59 0 -111 18 -133 62l70 63c12 -22 29 -32 54 -32c47 0 62 36 62 114v7c-13 -35 -37 -59 -77 -59
c-61 0 -104 45 -104 135c0 82 41 143 134 143z" />
    <glyph glyph-name="uni208A" unicode="&#x208a;" horiz-adv-x="248" 
d="M167 56h-86v85h-63v80h63v87h86v-87h62v-80h-62v-85z" />
    <glyph glyph-name="uni208B" unicode="&#x208b;" horiz-adv-x="248" 
d="M229 222v-81h-211v81h211z" />
    <glyph glyph-name="uni208C" unicode="&#x208c;" horiz-adv-x="248" 
d="M229 272v-81h-211v81h211zM229 168v-81h-211v81h211z" />
    <glyph glyph-name="uni208D" unicode="&#x208d;" horiz-adv-x="191" 
d="M180 -6l-12 -102c-103 13 -152 105 -152 266s48 252 148 265l16 -101c-49 -9 -75 -49 -75 -164c0 -117 26 -156 75 -164z" />
    <glyph glyph-name="uni208E" unicode="&#x208e;" horiz-adv-x="191" 
d="M23 -108l-12 102c49 8 75 47 75 164c0 115 -26 155 -75 164l16 101c100 -13 148 -104 148 -265s-49 -253 -152 -266z" />
    <glyph glyph-name="zero.inf" unicode="&#xe571;" horiz-adv-x="352" 
d="M17 7c0 143 47 216 158 216c112 0 160 -73 160 -216c0 -145 -48 -217 -160 -217c-111 0 -158 73 -158 217zM216 7c0 89 -15 117 -41 117c-25 0 -39 -29 -39 -117c0 -89 14 -119 40 -119c25 0 40 30 40 119z" />
    <glyph glyph-name="one.inf" unicode="&#xe572;" horiz-adv-x="230" 
d="M200 -200h-121v270l-32 -22l-44 98l117 74h80v-420z" />
    <glyph glyph-name="two.inf" unicode="&#xe573;" horiz-adv-x="300" 
d="M21 -200v80l119 154c18 26 26 43 26 56c0 18 -11 28 -29 28s-33 -9 -44 -38l-93 35c22 75 79 108 150 108c80 0 135 -42 135 -117c0 -53 -26 -90 -77 -157l-37 -49l115 5v-105h-265z" />
    <glyph glyph-name="three.inf" unicode="&#xe574;" horiz-adv-x="309" 
d="M151 -210c-67 0 -118 27 -147 96l86 46c16 -36 30 -45 53 -45c21 0 34 13 34 35c0 24 -18 38 -42 38h-29v89h30c19 0 36 13 36 37c0 23 -15 35 -35 35c-21 0 -35 -12 -41 -35l-87 35c21 72 70 102 143 102c91 0 138 -50 138 -114c0 -44 -18 -73 -53 -100
c35 -18 56 -52 56 -96c0 -75 -57 -123 -142 -123z" />
    <glyph glyph-name="four.inf" unicode="&#xe575;" horiz-adv-x="349" 
d="M15 -125v87l88 251h116l-86 -234h61v93h110v-93h35v-104h-35v-75h-110v75h-179z" />
    <glyph glyph-name="five.inf" unicode="&#xe576;" horiz-adv-x="311" 
d="M134 115l-3 -55c11 6 29 10 50 10c69 0 118 -43 118 -133c0 -95 -57 -147 -153 -147c-65 0 -114 26 -144 91l86 48c14 -34 29 -41 51 -41c27 0 41 20 41 49c0 33 -17 46 -36 46c-16 0 -29 -8 -37 -22l-85 38l14 214h252v-99z" />
    <glyph glyph-name="six.inf" unicode="&#xe577;" horiz-adv-x="336" 
d="M183 -210c-110 0 -166 70 -166 215c0 136 48 218 166 218c71 0 114 -29 134 -82l-82 -45c-8 20 -19 31 -43 31c-40 0 -56 -33 -56 -115v-8c12 33 36 56 77 56c60 0 106 -43 106 -129c0 -81 -44 -141 -136 -141zM145 -70c0 -29 11 -46 29 -46c20 0 28 17 28 46
c0 28 -10 45 -28 45c-17 0 -29 -17 -29 -45z" />
    <glyph glyph-name="seven.inf" unicode="&#xe578;" horiz-adv-x="291" 
d="M201 -200h-137c0 154 50 253 106 309l-159 -4v108h275v-83c-62 -95 -85 -164 -85 -330z" />
    <glyph glyph-name="eight.inf" unicode="&#xe579;" horiz-adv-x="324" 
d="M162 -210c-95 0 -145 47 -145 127c0 46 19 81 57 100c-27 19 -44 49 -44 86c0 78 46 120 132 120c88 0 133 -42 133 -120c0 -37 -18 -67 -44 -86c36 -20 56 -53 56 -100c0 -80 -48 -127 -145 -127zM192 95c0 19 -10 37 -29 37c-20 0 -31 -18 -31 -37c0 -20 12 -36 30 -36
c19 0 30 16 30 36zM194 -81c0 21 -11 39 -31 39c-22 0 -33 -18 -33 -39c0 -24 13 -42 32 -42c20 0 32 17 32 42z" />
    <glyph glyph-name="nine.inf" unicode="&#xe57a;" horiz-adv-x="333" 
d="M185 79c0 28 -12 47 -29 47s-27 -16 -27 -45c0 -28 9 -48 28 -48c17 0 28 18 28 46zM150 223c109 0 166 -70 166 -215c0 -135 -50 -218 -172 -218c-59 0 -111 18 -133 62l70 63c12 -22 29 -32 54 -32c47 0 62 36 62 114v7c-13 -35 -37 -59 -77 -59
c-61 0 -104 45 -104 135c0 82 41 143 134 143z" />
    <glyph glyph-name="plus.inf" unicode="&#xe57b;" horiz-adv-x="248" 
d="M167 -144h-86v85h-63v80h63v87h86v-87h62v-80h-62v-85z" />
    <glyph glyph-name="minus.inf" unicode="&#xe57c;" horiz-adv-x="248" 
d="M229 22v-81h-211v81h211z" />
    <glyph glyph-name="equal.inf" unicode="&#xe57d;" horiz-adv-x="248" 
d="M229 72v-81h-211v81h211zM229 -32v-81h-211v81h211z" />
    <glyph glyph-name="parenleft.inf" unicode="&#xe57e;" horiz-adv-x="191" 
d="M180 -206l-12 -102c-103 13 -152 105 -152 266s48 252 148 265l16 -101c-49 -9 -75 -49 -75 -164c0 -117 26 -156 75 -164z" />
    <glyph glyph-name="parenright.inf" unicode="&#xe57f;" horiz-adv-x="191" 
d="M23 -308l-12 102c49 8 75 47 75 164c0 115 -26 155 -75 164l16 101c100 -13 148 -104 148 -265s-49 -253 -152 -266z" />
    <glyph glyph-name="uni215F" unicode="&#x215f;" horiz-adv-x="638" 
d="M200 293h-121v270l-32 -22l-44 98l117 74h80v-420zM543 700l-271 -700h-140l271 700h140z" />
    <glyph glyph-name="uni2153" unicode="&#x2153;" horiz-adv-x="748" 
d="M200 293h-121v270l-32 -22l-44 98l117 74h80v-420zM543 700l-271 -700h-140l271 700h140zM589 -10c-67 0 -118 27 -147 96l86 46c16 -36 30 -45 53 -45c21 0 34 13 34 35c0 24 -18 38 -42 38h-29v89h30c19 0 36 13 36 37c0 23 -15 35 -35 35c-21 0 -35 -12 -41 -35
l-87 35c21 72 70 102 143 102c91 0 138 -50 138 -114c0 -44 -18 -73 -53 -100c35 -18 56 -52 56 -96c0 -75 -57 -123 -142 -123z" />
    <glyph glyph-name="uni2154" unicode="&#x2154;" horiz-adv-x="839" 
d="M21 293v80l119 154c18 26 26 43 26 56c0 18 -11 28 -29 28s-33 -9 -44 -38l-93 35c22 75 79 108 150 108c80 0 135 -42 135 -117c0 -53 -26 -90 -77 -157l-37 -49l115 5v-105h-265zM632 700l-271 -700h-140l271 700h140zM679 -10c-67 0 -118 27 -147 96l86 46
c16 -36 30 -45 53 -45c21 0 34 13 34 35c0 24 -18 38 -42 38h-29v89h30c19 0 36 13 36 37c0 23 -15 35 -35 35c-21 0 -35 -12 -41 -35l-87 35c21 72 70 102 143 102c91 0 138 -50 138 -114c0 -44 -18 -73 -53 -100c35 -18 56 -52 56 -96c0 -75 -57 -123 -142 -123z" />
    <glyph glyph-name="uni2155" unicode="&#x2155;" horiz-adv-x="761" 
d="M200 293h-121v270l-32 -22l-44 98l117 74h80v-420zM543 700l-271 -700h-140l271 700h140zM585 315l-3 -55c11 6 29 10 50 10c69 0 118 -43 118 -133c0 -95 -57 -147 -153 -147c-65 0 -114 26 -144 91l86 48c14 -34 29 -41 51 -41c27 0 41 20 41 49c0 33 -17 46 -36 46
c-16 0 -29 -8 -37 -22l-85 38l14 214h252v-99z" />
    <glyph glyph-name="uni2156" unicode="&#x2156;" horiz-adv-x="851" 
d="M21 293v80l119 154c18 26 26 43 26 56c0 18 -11 28 -29 28s-33 -9 -44 -38l-93 35c22 75 79 108 150 108c80 0 135 -42 135 -117c0 -53 -26 -90 -77 -157l-37 -49l115 5v-105h-265zM632 700l-271 -700h-140l271 700h140zM675 315l-3 -55c11 6 29 10 50 10
c69 0 118 -43 118 -133c0 -95 -57 -147 -153 -147c-65 0 -114 26 -144 91l86 48c14 -34 29 -41 51 -41c27 0 41 20 41 49c0 33 -17 46 -36 46c-16 0 -29 -8 -37 -22l-85 38l14 214h252v-99z" />
    <glyph glyph-name="uni2157" unicode="&#x2157;" horiz-adv-x="820" 
d="M601 700l-271 -700h-140l271 700h140zM151 283c-67 0 -118 27 -147 96l86 46c16 -36 30 -45 53 -45c21 0 34 13 34 35c0 24 -18 38 -42 38h-29v89h30c19 0 36 13 36 37c0 23 -15 35 -35 35c-21 0 -35 -12 -41 -35l-87 35c21 72 70 102 143 102c91 0 138 -50 138 -114
c0 -44 -18 -73 -53 -100c35 -18 56 -52 56 -96c0 -75 -57 -123 -142 -123zM646 315l-3 -55c11 6 29 10 50 10c69 0 118 -43 118 -133c0 -95 -57 -147 -153 -147c-65 0 -114 26 -144 91l86 48c14 -34 29 -41 51 -41c27 0 41 20 41 49c0 33 -17 46 -36 46
c-16 0 -29 -8 -37 -22l-85 38l14 214h252v-99z" />
    <glyph glyph-name="uni2158" unicode="&#x2158;" horiz-adv-x="868" 
d="M15 368v87l88 251h116l-86 -234h61v93h110v-93h35v-104h-35v-75h-110v75h-179zM649 700l-271 -700h-140l271 700h140zM692 315l-3 -55c11 6 29 10 50 10c69 0 118 -43 118 -133c0 -95 -57 -147 -153 -147c-65 0 -114 26 -144 91l86 48c14 -34 29 -41 51 -41
c27 0 41 20 41 49c0 33 -17 46 -36 46c-16 0 -29 -8 -37 -22l-85 38l14 214h252v-99z" />
    <glyph glyph-name="uni2159" unicode="&#x2159;" horiz-adv-x="754" 
d="M200 293h-121v270l-32 -22l-44 98l117 74h80v-420zM543 700l-271 -700h-140l271 700h140zM601 -10c-110 0 -166 70 -166 215c0 136 48 218 166 218c71 0 114 -29 134 -82l-82 -45c-8 20 -19 31 -43 31c-40 0 -56 -33 -56 -115v-8c12 33 36 56 77 56
c60 0 106 -43 106 -129c0 -81 -44 -141 -136 -141zM563 130c0 -29 11 -46 29 -46c20 0 28 17 28 46c0 28 -10 45 -28 45c-17 0 -29 -17 -29 -45z" />
    <glyph glyph-name="uni215A" unicode="&#x215a;" horiz-adv-x="816" 
d="M603 700l-271 -700h-140l271 700h140zM134 608l-3 -55c11 6 29 10 50 10c69 0 118 -43 118 -133c0 -95 -57 -147 -153 -147c-65 0 -114 26 -144 91l86 48c14 -34 29 -41 51 -41c27 0 41 20 41 49c0 33 -17 46 -36 46c-16 0 -29 -8 -37 -22l-85 38l14 214h252v-99z
M663 -10c-110 0 -166 70 -166 215c0 136 48 218 166 218c71 0 114 -29 134 -82l-82 -45c-8 20 -19 31 -43 31c-40 0 -56 -33 -56 -115v-8c12 33 36 56 77 56c60 0 106 -43 106 -129c0 -81 -44 -141 -136 -141zM625 130c0 -29 11 -46 29 -46c20 0 28 17 28 46
c0 28 -10 45 -28 45c-17 0 -29 -17 -29 -45z" />
    <glyph glyph-name="uni215B" unicode="&#x215b;" horiz-adv-x="751" 
d="M200 293h-121v270l-32 -22l-44 98l117 74h80v-420zM543 700l-271 -700h-140l271 700h140zM589 -10c-95 0 -145 47 -145 127c0 46 19 81 57 100c-27 19 -44 49 -44 86c0 78 46 120 132 120c88 0 133 -42 133 -120c0 -37 -18 -67 -44 -86c36 -20 56 -53 56 -100
c0 -80 -48 -127 -145 -127zM619 295c0 19 -10 37 -29 37c-20 0 -31 -18 -31 -37c0 -20 12 -36 30 -36c19 0 30 16 30 36zM621 119c0 21 -11 39 -31 39c-22 0 -33 -18 -33 -39c0 -24 13 -42 32 -42c20 0 32 17 32 42z" />
    <glyph glyph-name="uni215C" unicode="&#x215c;" horiz-adv-x="812" 
d="M601 700l-271 -700h-140l271 700h140zM151 283c-67 0 -118 27 -147 96l86 46c16 -36 30 -45 53 -45c21 0 34 13 34 35c0 24 -18 38 -42 38h-29v89h30c19 0 36 13 36 37c0 23 -15 35 -35 35c-21 0 -35 -12 -41 -35l-87 35c21 72 70 102 143 102c91 0 138 -50 138 -114
c0 -44 -18 -73 -53 -100c35 -18 56 -52 56 -96c0 -75 -57 -123 -142 -123zM650 -10c-95 0 -145 47 -145 127c0 46 19 81 57 100c-27 19 -44 49 -44 86c0 78 46 120 132 120c88 0 133 -42 133 -120c0 -37 -18 -67 -44 -86c36 -20 56 -53 56 -100c0 -80 -48 -127 -145 -127z
M680 295c0 19 -10 37 -29 37c-20 0 -31 -18 -31 -37c0 -20 12 -36 30 -36c19 0 30 16 30 36zM682 119c0 21 -11 39 -31 39c-22 0 -33 -18 -33 -39c0 -24 13 -42 32 -42c20 0 32 17 32 42z" />
    <glyph glyph-name="uni215D" unicode="&#x215d;" horiz-adv-x="812" 
d="M601 700l-271 -700h-140l271 700h140zM650 -10c-95 0 -145 47 -145 127c0 46 19 81 57 100c-27 19 -44 49 -44 86c0 78 46 120 132 120c88 0 133 -42 133 -120c0 -37 -18 -67 -44 -86c36 -20 56 -53 56 -100c0 -80 -48 -127 -145 -127zM134 608l-3 -55c11 6 29 10 50 10
c69 0 118 -43 118 -133c0 -95 -57 -147 -153 -147c-65 0 -114 26 -144 91l86 48c14 -34 29 -41 51 -41c27 0 41 20 41 49c0 33 -17 46 -36 46c-16 0 -29 -8 -37 -22l-85 38l14 214h252v-99zM680 295c0 19 -10 37 -29 37c-20 0 -31 -18 -31 -37c0 -20 12 -36 30 -36
c19 0 30 16 30 36zM682 119c0 21 -11 39 -31 39c-22 0 -33 -18 -33 -39c0 -24 13 -42 32 -42c20 0 32 17 32 42z" />
    <glyph glyph-name="uni215E" unicode="&#x215e;" horiz-adv-x="756" 
d="M201 293h-137c0 154 50 253 106 309l-159 -4v108h275v-83c-62 -95 -85 -164 -85 -330zM547 700l-271 -700h-140l271 700h140zM594 -10c-95 0 -145 47 -145 127c0 46 19 81 57 100c-27 19 -44 49 -44 86c0 78 46 120 132 120c88 0 133 -42 133 -120c0 -37 -18 -67 -44 -86
c36 -20 56 -53 56 -100c0 -80 -48 -127 -145 -127zM624 295c0 19 -10 37 -29 37c-20 0 -31 -18 -31 -37c0 -20 12 -36 30 -36c19 0 30 16 30 36zM626 119c0 21 -11 39 -31 39c-22 0 -33 -18 -33 -39c0 -24 13 -42 32 -42c20 0 32 17 32 42z" />
    <glyph glyph-name="Gdotaccent.alt" unicode="&#xe974;" horiz-adv-x="593" 
d="M222 847c0 56 31 84 87 84c57 0 86 -28 86 -84c0 -53 -29 -82 -86 -82c-56 0 -87 29 -87 82zM309 244v146h253v-103c0 -212 -95 -303 -261 -303c-168 0 -271 120 -271 367c0 251 94 365 282 365c120 0 206 -51 238 -195l-156 -50c-17 59 -43 80 -85 80
c-62 0 -99 -50 -99 -202c0 -158 37 -210 100 -210c45 0 80 31 79 105h-80z" />
    <glyph glyph-name="kcommaaccent.alt" unicode="&#xe915;" horiz-adv-x="496" 
d="M305 0l-95 183l-1 -183h-171v700h173l-1 -398l99 199h172l-133 -244l144 -257h-187zM345 -155c0 -104 -60 -179 -136 -196l-33 64c37 13 68 39 77 73c-48 1 -78 28 -78 79c0 56 30 84 85 84c53 0 85 -35 85 -104z" />
    <glyph glyph-name="G.alt" unicode="&#xe486;" horiz-adv-x="592" 
d="M309 244v146h253v-103c0 -212 -95 -303 -261 -303c-168 0 -271 120 -271 367c0 251 94 365 282 365c120 0 206 -51 238 -195l-156 -50c-17 59 -43 80 -85 80c-62 0 -99 -50 -99 -202c0 -158 37 -210 100 -210c45 0 80 31 79 105h-80z" />
    <glyph glyph-name="G.alt" unicode="&#xe970;" horiz-adv-x="592" 
d="M309 244v146h253v-103c0 -212 -95 -303 -261 -303c-168 0 -271 120 -271 367c0 251 94 365 282 365c120 0 206 -51 238 -195l-156 -50c-17 59 -43 80 -85 80c-62 0 -99 -50 -99 -202c0 -158 37 -210 100 -210c45 0 80 31 79 105h-80z" />
    <glyph glyph-name="Kcommaaccent.alt" unicode="&#xeba9;" horiz-adv-x="589" 
d="M371 0l-136 287v-287h-182v700h182v-315l146 315h203l-184 -349l188 -351h-217zM390 -155c0 -104 -60 -179 -136 -196l-33 64c37 13 68 39 77 73c-48 1 -78 28 -78 79c0 56 30 84 85 84c53 0 85 -35 85 -104z" />
    <glyph glyph-name="K.alt" unicode="&#xe48a;" horiz-adv-x="589" 
d="M371 0l-136 287v-287h-182v700h182v-315l146 315h203l-184 -349l188 -351h-217z" />
    <glyph glyph-name="Gcommaaccent.alt" unicode="&#xe973;" horiz-adv-x="592" 
d="M309 244v146h253v-103c0 -212 -95 -303 -261 -303c-168 0 -271 120 -271 367c0 251 94 365 282 365c120 0 206 -51 238 -195l-156 -50c-17 59 -43 80 -85 80c-62 0 -99 -50 -99 -202c0 -158 37 -210 100 -210c45 0 80 31 79 105h-80zM393 -155c0 -104 -60 -179 -136 -196
l-33 64c37 13 68 39 77 73c-48 1 -78 28 -78 79c0 56 30 84 85 84c53 0 85 -35 85 -104z" />
    <glyph glyph-name="Gbreve.alt" unicode="&#xe971;" horiz-adv-x="593" 
d="M366 908h97c0 -112 -56 -148 -152 -148c-97 0 -151 36 -151 148h96c0 -45 17 -58 55 -58c39 0 55 13 55 58zM309 244v146h253v-103c0 -212 -95 -303 -261 -303c-168 0 -271 120 -271 367c0 251 94 365 282 365c120 0 206 -51 238 -195l-156 -50c-17 59 -43 80 -85 80
c-62 0 -99 -50 -99 -202c0 -158 37 -210 100 -210c45 0 80 31 79 105h-80z" />
    <glyph glyph-name="k.alt" unicode="&#xe4ca;" horiz-adv-x="496" 
d="M305 0l-95 183l-1 -183h-171v700h173l-1 -398l99 199h172l-133 -244l144 -257h-187z" />
    <glyph glyph-name="k.alt" unicode="&#xea89;" horiz-adv-x="496" 
d="M305 0l-95 183l-1 -183h-171v700h173l-1 -398l99 199h172l-133 -244l144 -257h-187z" />
    <glyph glyph-name="Gcircumflex.alt" unicode="&#xe972;" horiz-adv-x="593" 
d="M307 821l-40 -53h-119v4l96 137h136l95 -137v-4h-125zM309 244v146h253v-103c0 -212 -95 -303 -261 -303c-168 0 -271 120 -271 367c0 251 94 365 282 365c120 0 206 -51 238 -195l-156 -50c-17 59 -43 80 -85 80c-62 0 -99 -50 -99 -202c0 -158 37 -210 100 -210
c45 0 80 31 79 105h-80z" />
    </font>
</defs>
</svg>
